<svg width="215" height="26" viewBox="0 0 215 26" fill="none" xmlns="http://www.w3.org/2000/svg">
<path d="M62.3662 7.10604V18.1207H65.104C65.8027 18.1103 66.4923 17.9594 67.1318 17.677C67.7714 17.3946 68.348 16.9864 68.8275 16.4766C69.8118 15.4313 70.3503 14.0419 70.3284 12.6043C70.3492 11.8902 70.2292 11.179 69.9753 10.5116C69.7213 9.84419 69.3384 9.23368 68.8485 8.71518C68.3669 8.20461 67.7863 7.79833 67.1423 7.52135C66.4984 7.24436 65.8047 7.10255 65.104 7.10464H62.3676L62.3662 7.10604ZM65.104 3.65248C70.2069 3.65248 74.0672 7.61861 74.0672 12.6043C74.0672 17.5899 70.2069 21.5785 65.104 21.5785H59.0657C59.0082 21.5777 58.9513 21.5656 58.8984 21.5429C58.8455 21.5201 58.7976 21.4871 58.7574 21.4457C58.7172 21.4044 58.6855 21.3555 58.6642 21.3018C58.6428 21.2482 58.6322 21.1909 58.6329 21.1331V4.11604C58.6329 3.86956 58.827 3.66929 59.0657 3.66929L65.104 3.65248ZM87.2202 18.5044C89.5378 18.5115 91.6306 17.0816 92.5227 14.8814C92.9597 13.8065 93.0765 12.6274 92.8589 11.4872C92.6414 10.347 92.0988 9.29458 91.2969 8.45749C90.5091 7.63414 89.4908 7.06993 88.3765 6.83939C87.2622 6.60884 86.1045 6.72282 85.0562 7.16626C82.9145 8.07376 81.5156 10.2207 81.5114 12.6043C81.5114 15.8534 84.0635 18.489 87.2216 18.5044H87.2202ZM87.2216 3.24635C92.5925 3.24635 96.6985 7.49257 96.6985 12.6043C96.6985 17.716 92.5925 21.9622 87.2202 21.9622C81.8493 21.9622 77.7781 17.737 77.7781 12.6043C77.7781 7.47156 81.8842 3.24635 87.2202 3.24635H87.2216ZM109.745 18.5044C112.905 18.496 115.461 15.8576 115.458 12.6085C115.454 9.35659 112.892 6.72371 109.734 6.72231C106.573 6.72231 104.01 9.35379 104.006 12.6043C104.006 14.17 104.61 15.6713 105.687 16.7777C106.214 17.3229 106.844 17.7566 107.541 18.0532C108.238 18.3498 108.987 18.5033 109.744 18.5044H109.745ZM109.744 3.24635C115.098 3.24635 119.204 7.47156 119.204 12.6043C119.204 17.737 115.081 21.9622 109.744 21.9622C104.408 21.9622 100.267 17.737 100.267 12.6043C100.267 7.47156 104.373 3.24635 109.744 3.24635ZM131.728 7.10604H127.867V11.8466H131.728C132.033 11.8602 132.337 11.8109 132.622 11.7018C132.908 11.5927 133.168 11.426 133.386 11.2122C133.833 10.7781 134.087 10.1759 134.093 9.54285C134.104 9.22171 134.05 8.90159 133.935 8.60173C133.82 8.30187 133.646 8.02844 133.422 7.79787C133.203 7.57096 132.939 7.39255 132.648 7.27412C132.356 7.15569 132.042 7.09987 131.728 7.11024V7.10604ZM124.133 4.11604C124.133 3.86956 124.328 3.66929 124.567 3.66929H131.835C135.3 3.66929 137.808 6.28116 137.808 9.56106C137.834 11.7794 136.627 13.8171 134.699 14.81L138.051 20.9063C138.097 20.9763 138.123 21.0579 138.126 21.142C138.129 21.226 138.109 21.3092 138.067 21.3824C138.027 21.4544 137.967 21.5133 137.894 21.552C137.821 21.5908 137.739 21.6077 137.657 21.6009H134.715C134.634 21.602 134.553 21.58 134.484 21.5374C134.414 21.4948 134.358 21.4333 134.322 21.36L131.091 15.3268H127.853V21.1191C127.854 21.177 127.844 21.2345 127.822 21.2883C127.801 21.3421 127.77 21.3911 127.729 21.4326C127.689 21.4741 127.641 21.5073 127.588 21.5301C127.535 21.553 127.478 21.5651 127.42 21.5659H124.586C124.529 21.5651 124.472 21.553 124.419 21.5301C124.366 21.5073 124.318 21.4741 124.277 21.4326C124.237 21.3911 124.206 21.3421 124.184 21.2883C124.163 21.2345 124.153 21.177 124.154 21.1191L124.134 4.11744L124.133 4.11604ZM147.542 7.19007V18.2061H150.278C150.977 18.1967 151.666 18.0468 152.306 17.7653C152.946 17.4839 153.523 17.0766 154.003 16.5676C154.988 15.5236 155.527 14.1352 155.506 12.6981C155.529 11.9832 155.41 11.2708 155.157 10.6022C154.903 9.93349 154.521 9.32169 154.031 8.80201C153.548 8.29058 152.967 7.88379 152.321 7.60678C151.676 7.32977 150.981 7.18842 150.279 7.19147L147.542 7.19007ZM150.278 3.73231C155.381 3.73231 159.241 7.70264 159.241 12.6981C159.241 17.6936 155.381 21.6639 150.278 21.6639H144.258C144.2 21.6632 144.143 21.651 144.09 21.6282C144.037 21.6053 143.989 21.5722 143.949 21.5307C143.909 21.4892 143.877 21.4401 143.856 21.3863C143.835 21.3325 143.824 21.275 143.825 21.2172V4.20147C143.825 3.95359 144.019 3.75332 144.258 3.75332L150.279 3.73231H150.278ZM170.628 8.11298L168.51 14.0033H172.742L170.628 8.11298ZM167.268 17.3323L165.881 21.2536C165.853 21.3458 165.796 21.4262 165.717 21.482C165.639 21.5378 165.544 21.5658 165.448 21.5617H162.441C162.365 21.5688 162.287 21.5552 162.218 21.5222C162.148 21.4891 162.089 21.438 162.046 21.374C162.002 21.3093 161.975 21.2343 161.969 21.1563C161.962 21.0783 161.976 20.9999 162.008 20.9287L168.506 3.92838C168.536 3.83873 168.595 3.76147 168.673 3.70838C168.751 3.65528 168.844 3.62926 168.939 3.63428H172.303C172.398 3.62895 172.491 3.65482 172.57 3.70794C172.648 3.76105 172.707 3.83848 172.738 3.92838L179.235 20.9287C179.267 21 179.281 21.0785 179.274 21.1565C179.267 21.2345 179.24 21.3094 179.196 21.374C179.153 21.4377 179.093 21.4886 179.024 21.5214C178.954 21.5541 178.877 21.5676 178.801 21.5603H175.795C175.699 21.5644 175.604 21.5364 175.526 21.4806C175.448 21.4248 175.39 21.3444 175.362 21.2522L173.976 17.3309H167.268V17.3323ZM182.721 8.4953C182.721 5.68036 185.086 3.24635 188.821 3.24635C190.832 3.2013 192.779 3.95595 194.238 5.34565C194.282 5.3878 194.318 5.4386 194.342 5.49495C194.366 5.5513 194.379 5.61201 194.379 5.67336C194.379 5.73471 194.366 5.79542 194.342 5.85177C194.318 5.90812 194.282 5.95892 194.238 6.00107L192.572 7.70264C192.533 7.74398 192.485 7.77685 192.432 7.7993C192.379 7.82175 192.323 7.83332 192.265 7.83332C192.208 7.83332 192.151 7.82175 192.098 7.7993C192.046 7.77685 191.998 7.74398 191.958 7.70264C191.174 6.96504 190.143 6.54713 189.068 6.53045C187.574 6.53045 186.47 7.42254 186.47 8.45189C186.47 11.7794 195.298 9.85936 195.298 16.2623C195.294 19.5072 192.91 21.9622 188.697 21.9622C187.527 21.9742 186.366 21.7501 185.284 21.303C184.202 20.856 183.221 20.1953 182.399 19.3601C182.354 19.318 182.319 19.2672 182.295 19.2108C182.271 19.1545 182.258 19.0938 182.258 19.0324C182.258 18.9711 182.271 18.9104 182.295 18.854C182.319 18.7977 182.354 18.7469 182.399 18.7047L184.01 17.0466C184.05 17.0032 184.099 16.9686 184.153 16.945C184.207 16.9213 184.265 16.9091 184.324 16.9091C184.383 16.9091 184.441 16.9213 184.495 16.945C184.55 16.9686 184.598 17.0032 184.638 17.0466C185.652 18.0548 187.018 18.6274 188.445 18.6431C190.312 18.6431 191.542 17.618 191.542 16.3337C191.542 13.0048 182.719 14.9263 182.719 8.52191L182.721 8.4953ZM211.306 4.09363V10.8215H203.834V4.09363C203.834 4.03588 203.824 3.97855 203.802 3.92492C203.781 3.87128 203.749 3.82239 203.709 3.78103C203.669 3.73968 203.621 3.70667 203.568 3.68389C203.515 3.66111 203.458 3.64901 203.401 3.64828H200.567C200.509 3.64901 200.452 3.66111 200.399 3.68389C200.346 3.70667 200.299 3.73968 200.258 3.78103C200.218 3.82239 200.186 3.87128 200.165 3.92492C200.144 3.97855 200.133 4.03588 200.134 4.09363V21.0911C200.134 21.3376 200.329 21.5379 200.567 21.5379H203.401C203.638 21.5379 203.834 21.3376 203.834 21.0911V14.2568H211.3V21.0911C211.3 21.3376 211.496 21.5379 211.733 21.5379H214.567C214.806 21.5379 215 21.3376 215 21.0911V4.09363C215.001 4.03588 214.99 3.97855 214.969 3.92492C214.947 3.87128 214.916 3.82239 214.876 3.78103C214.835 3.73968 214.787 3.70667 214.735 3.68389C214.682 3.66111 214.625 3.64901 214.567 3.64828H211.733C211.618 3.65122 211.508 3.69961 211.428 3.78298C211.348 3.86634 211.304 3.97795 211.306 4.09363V4.09363ZM42.724 5.91704C40.7582 2.26182 36.9119 -0.0139404 32.7291 6.42677e-05H1.0815C0.867776 0.000934498 0.659032 0.0648714 0.481277 0.183908C0.303523 0.302945 0.164617 0.471819 0.0818688 0.669488C0.000329605 0.865889 -0.0209068 1.08224 0.0208796 1.29082C0.0626659 1.4994 0.165573 1.69072 0.316419 1.84028L7.21053 8.70257C7.81924 9.31038 8.64855 9.65069 9.51136 9.65069H31.8216C33.4118 9.63388 34.7116 10.8971 34.7283 12.4698C34.7451 14.0426 33.4704 15.331 31.8802 15.3464H16.499C16.2851 15.3465 16.076 15.4097 15.8977 15.5283C15.7195 15.6468 15.5799 15.8154 15.4966 16.013C15.4143 16.2096 15.3925 16.4265 15.434 16.6356C15.4756 16.8448 15.5786 17.0367 15.7297 17.1866L22.628 24.0545C23.2406 24.662 24.0675 25.0022 24.9289 25.0012H31.8858C40.9369 25.0012 47.7808 15.422 42.724 5.91284" fill="#EB1700"/>
</svg>
