<svg width="244" height="33" viewBox="0 0 244 33" fill="none" xmlns="http://www.w3.org/2000/svg">
<path d="M6.26685 22.8557H35.4572V26.9479C35.4572 28.0332 35.0178 29.0741 34.2358 29.8415C33.4538 30.609 32.3931 31.0401 31.2871 31.0401H10.4369C9.33093 31.0401 8.27026 30.609 7.48822 29.8415C6.70619 29.0741 6.26685 28.0332 6.26685 26.9479V22.8557Z" stroke="#FF7629" stroke-width="2.67978" stroke-linecap="round" stroke-linejoin="round"/>
<path d="M14.6069 2.39447H27.1171C29.329 2.39447 31.4503 3.25676 33.0144 4.79165C34.5785 6.32653 35.4572 8.40829 35.4572 10.5789V14.6712H6.26685V10.5789C6.26685 8.40829 7.14553 6.32653 8.7096 4.79165C10.2737 3.25676 12.395 2.39447 14.6069 2.39447V2.39447Z" stroke="#FF7629" stroke-width="2.67978" stroke-linecap="round" stroke-linejoin="round"/>
<path d="M35.4571 14.6711H6.26673C3.96367 14.6711 2.09668 16.5033 2.09668 18.7634C2.09668 21.0235 3.96367 22.8556 6.26673 22.8556H35.4571C37.7601 22.8556 39.6271 21.0235 39.6271 18.7634C39.6271 16.5033 37.7601 14.6711 35.4571 14.6711Z" stroke="#FF7629" stroke-width="2.67978" stroke-linecap="round" stroke-linejoin="round"/>
<path d="M51.7133 26.5342V6.54197H59.0534C60.6527 6.54197 61.9665 6.81805 62.9947 7.37022C64.0419 7.90335 64.8226 8.6364 65.3367 9.56937C65.8507 10.4833 66.1078 11.502 66.1078 12.6253C66.1078 13.8439 65.7841 14.9578 65.1367 15.9669C64.5084 16.976 63.5183 17.7091 62.1665 18.166L66.3077 26.5342H62.1093L58.3965 18.6516H55.3691V26.5342H51.7133ZM55.3691 15.9669H58.8249C60.0435 15.9669 60.9384 15.6718 61.5096 15.0815C62.0808 14.4913 62.3664 13.7106 62.3664 12.7396C62.3664 11.7876 62.0808 11.0259 61.5096 10.4547C60.9574 9.88353 60.053 9.59793 58.7963 9.59793H55.3691V15.9669ZM75.4406 26.877C74.0125 26.877 72.7464 26.5723 71.642 25.963C70.5377 25.3537 69.6714 24.4969 69.043 23.3926C68.4147 22.2883 68.1005 21.0126 68.1005 19.5655C68.1005 18.0994 68.4052 16.7951 69.0145 15.6527C69.6428 14.5103 70.4996 13.6249 71.5849 12.9966C72.6892 12.3492 73.984 12.0256 75.4691 12.0256C76.8591 12.0256 78.0872 12.3302 79.1534 12.9395C80.2197 13.5488 81.0479 14.3866 81.6382 15.4528C82.2475 16.5 82.5521 17.671 82.5521 18.9657C82.5521 19.1752 82.5426 19.3941 82.5235 19.6226C82.5235 19.8511 82.514 20.0891 82.495 20.3366H71.7277C71.8039 21.441 72.1847 22.3073 72.8701 22.9356C73.5746 23.564 74.4219 23.8781 75.412 23.8781C76.1546 23.8781 76.7734 23.7163 77.2684 23.3926C77.7825 23.0499 78.1633 22.6119 78.4108 22.0788H82.1237C81.8571 22.9737 81.4097 23.7924 80.7814 24.535C80.1721 25.2585 79.4105 25.8298 78.4965 26.2486C77.6016 26.6675 76.583 26.877 75.4406 26.877ZM75.4691 14.9958C74.5742 14.9958 73.7841 15.2529 73.0986 15.767C72.4132 16.262 71.9752 17.0236 71.7848 18.0518H78.8392C78.7821 17.1188 78.4394 16.3763 77.8111 15.8241C77.1827 15.2719 76.4021 14.9958 75.4691 14.9958ZM91.4817 26.877C90.225 26.877 89.1207 26.677 88.1687 26.2772C87.2167 25.8583 86.4551 25.2871 85.8838 24.5636C85.3126 23.84 84.9699 23.0023 84.8557 22.0503H88.54C88.6542 22.6024 88.9588 23.0784 89.4539 23.4783C89.968 23.8591 90.6249 24.0495 91.4246 24.0495C92.2243 24.0495 92.805 23.8876 93.1667 23.564C93.5476 23.2403 93.738 22.869 93.738 22.4501C93.738 21.8408 93.4714 21.4315 92.9383 21.222C92.4051 20.9935 91.6626 20.7746 90.7106 20.5651C90.1013 20.4318 89.4825 20.27 88.8541 20.0796C88.2258 19.8892 87.6451 19.6512 87.1119 19.3656C86.5979 19.0609 86.179 18.6801 85.8553 18.2232C85.5316 17.7472 85.3698 17.1664 85.3698 16.481C85.3698 15.2243 85.8648 14.1676 86.8549 13.3108C87.864 12.454 89.273 12.0256 91.0818 12.0256C92.7574 12.0256 94.0902 12.4159 95.0803 13.1965C96.0894 13.9772 96.6892 15.053 96.8796 16.4239H93.4238C93.2143 15.3766 92.4242 14.853 91.0533 14.853C90.3678 14.853 89.8347 14.9863 89.4539 15.2529C89.0921 15.5194 88.9112 15.8527 88.9112 16.2525C88.9112 16.6714 89.1873 17.0046 89.7395 17.2521C90.2917 17.4996 91.0247 17.7281 91.9387 17.9376C92.9287 18.166 93.8332 18.4231 94.6519 18.7087C95.4897 18.9753 96.1561 19.3846 96.6511 19.9368C97.1462 20.4699 97.3937 21.241 97.3937 22.2502C97.4127 23.126 97.1842 23.9162 96.7082 24.6207C96.2322 25.3252 95.5468 25.8774 94.6519 26.2772C93.757 26.677 92.7003 26.877 91.4817 26.877ZM106.498 26.5342C105.013 26.5342 103.823 26.1725 102.928 25.4489C102.033 24.7254 101.585 23.4402 101.585 21.5933V15.4242H99.1577V12.3683H101.585L102.014 8.56975H105.241V12.3683H109.068V15.4242H105.241V21.6219C105.241 22.3073 105.384 22.7833 105.67 23.0499C105.974 23.2974 106.488 23.4212 107.212 23.4212H108.983V26.5342H106.498ZM117.091 26.877C115.872 26.877 114.873 26.6866 114.092 26.3058C113.311 25.9059 112.731 25.3823 112.35 24.7349C111.969 24.0876 111.779 23.3736 111.779 22.5929C111.779 21.2791 112.293 20.2129 113.321 19.3941C114.349 18.5754 115.891 18.166 117.948 18.166H121.546V17.8233C121.546 16.8523 121.27 16.1383 120.718 15.6813C120.166 15.2243 119.48 14.9958 118.662 14.9958C117.919 14.9958 117.272 15.1767 116.719 15.5385C116.167 15.8812 115.825 16.3953 115.691 17.0808H112.121C112.216 16.0526 112.559 15.1577 113.149 14.3961C113.759 13.6345 114.539 13.0537 115.491 12.6539C116.443 12.235 117.51 12.0256 118.69 12.0256C120.708 12.0256 122.298 12.5301 123.46 13.5393C124.621 14.5484 125.202 15.9764 125.202 17.8233V26.5342H122.089L121.746 24.2494C121.327 25.011 120.737 25.6393 119.975 26.1344C119.233 26.6294 118.271 26.877 117.091 26.877ZM117.919 24.0209C118.966 24.0209 119.775 23.6782 120.347 22.9928C120.937 22.3073 121.308 21.46 121.46 20.4509H118.347C117.376 20.4509 116.681 20.6318 116.263 20.9935C115.844 21.3362 115.634 21.7647 115.634 22.2787C115.634 22.8309 115.844 23.2593 116.263 23.564C116.681 23.8686 117.234 24.0209 117.919 24.0209ZM134.003 26.877C132.232 26.877 130.861 26.3248 129.89 25.2205C128.938 24.1161 128.462 22.4977 128.462 20.3652V12.3683H132.089V20.0225C132.089 21.241 132.337 22.174 132.832 22.8214C133.327 23.4688 134.107 23.7924 135.174 23.7924C136.183 23.7924 137.011 23.4307 137.658 22.7071C138.325 21.9836 138.658 20.9745 138.658 19.6797V12.3683H142.314V26.5342H139.086L138.801 24.1352C138.363 24.9729 137.725 25.6393 136.887 26.1344C136.069 26.6294 135.107 26.877 134.003 26.877ZM146.067 26.5342V12.3683H149.322L149.665 15.0244C150.179 14.1105 150.874 13.3869 151.75 12.8538C152.645 12.3016 153.692 12.0256 154.892 12.0256V15.8812H153.864C153.064 15.8812 152.35 16.005 151.722 16.2525C151.093 16.5 150.598 16.9284 150.236 17.5377C149.894 18.147 149.722 18.9943 149.722 20.0796V26.5342H146.067ZM162.274 26.877C161.056 26.877 160.056 26.6866 159.275 26.3058C158.495 25.9059 157.914 25.3823 157.533 24.7349C157.152 24.0876 156.962 23.3736 156.962 22.5929C156.962 21.2791 157.476 20.2129 158.504 19.3941C159.532 18.5754 161.075 18.166 163.131 18.166H166.73V17.8233C166.73 16.8523 166.454 16.1383 165.901 15.6813C165.349 15.2243 164.664 14.9958 163.845 14.9958C163.102 14.9958 162.455 15.1767 161.903 15.5385C161.351 15.8812 161.008 16.3953 160.875 17.0808H157.305C157.4 16.0526 157.743 15.1577 158.333 14.3961C158.942 13.6345 159.723 13.0537 160.675 12.6539C161.627 12.235 162.693 12.0256 163.874 12.0256C165.892 12.0256 167.482 12.5301 168.643 13.5393C169.805 14.5484 170.385 15.9764 170.385 17.8233V26.5342H167.272L166.93 24.2494C166.511 25.011 165.92 25.6393 165.159 26.1344C164.416 26.6294 163.455 26.877 162.274 26.877ZM163.102 24.0209C164.15 24.0209 164.959 23.6782 165.53 22.9928C166.12 22.3073 166.492 21.46 166.644 20.4509H163.531C162.56 20.4509 161.865 20.6318 161.446 20.9935C161.027 21.3362 160.818 21.7647 160.818 22.2787C160.818 22.8309 161.027 23.2593 161.446 23.564C161.865 23.8686 162.417 24.0209 163.102 24.0209ZM173.874 26.5342V12.3683H177.101L177.387 14.7674C177.825 13.9296 178.453 13.2632 179.272 12.7681C180.11 12.2731 181.09 12.0256 182.214 12.0256C183.965 12.0256 185.327 12.5777 186.298 13.6821C187.269 14.7864 187.754 16.4048 187.754 18.5373V26.5342H184.099V18.8801C184.099 17.6615 183.851 16.7285 183.356 16.0811C182.861 15.4338 182.09 15.1101 181.043 15.1101C180.014 15.1101 179.167 15.4718 178.501 16.1954C177.853 16.9189 177.53 17.928 177.53 19.2228V26.5342H173.874ZM197.562 26.5342C196.077 26.5342 194.887 26.1725 193.992 25.4489C193.097 24.7254 192.65 23.4402 192.65 21.5933V15.4242H190.222V12.3683H192.65L193.078 8.56975H196.305V12.3683H200.132V15.4242H196.305V21.6219C196.305 22.3073 196.448 22.7833 196.734 23.0499C197.038 23.2974 197.552 23.4212 198.276 23.4212H200.047V26.5342H197.562ZM209.792 26.877C208.364 26.877 207.097 26.5723 205.993 25.963C204.889 25.3537 204.022 24.4969 203.394 23.3926C202.766 22.2883 202.452 21.0126 202.452 19.5655C202.452 18.0994 202.756 16.7951 203.365 15.6527C203.994 14.5103 204.851 13.6249 205.936 12.9966C207.04 12.3492 208.335 12.0256 209.82 12.0256C211.21 12.0256 212.438 12.3302 213.504 12.9395C214.571 13.5488 215.399 14.3866 215.989 15.4528C216.598 16.5 216.903 17.671 216.903 18.9657C216.903 19.1752 216.894 19.3941 216.875 19.6226C216.875 19.8511 216.865 20.0891 216.846 20.3366H206.079C206.155 21.441 206.536 22.3073 207.221 22.9356C207.926 23.564 208.773 23.8781 209.763 23.8781C210.506 23.8781 211.124 23.7163 211.619 23.3926C212.133 23.0499 212.514 22.6119 212.762 22.0788H216.475C216.208 22.9737 215.761 23.7924 215.132 24.535C214.523 25.2585 213.761 25.8298 212.848 26.2486C211.953 26.6675 210.934 26.877 209.792 26.877ZM209.82 14.9958C208.925 14.9958 208.135 15.2529 207.45 15.767C206.764 16.262 206.326 17.0236 206.136 18.0518H213.19C213.133 17.1188 212.79 16.3763 212.162 15.8241C211.534 15.2719 210.753 14.9958 209.82 14.9958ZM225.898 26.5342L232.153 16.4239L225.812 6.54197H230.011L234.494 13.5107L238.607 6.54197H242.72L236.465 16.5952L242.863 26.5342H238.664L234.123 19.4798L230.011 26.5342H225.898Z" fill="#161412"/>
</svg>
