<svg width="19" height="25" viewBox="0 0 19 25" fill="none" xmlns="http://www.w3.org/2000/svg">
<path d="M9.57129 8.86622C9.66542 8.86368 9.75912 8.88003 9.84683 8.9143C9.93454 8.94857 10.0145 9.00008 10.082 9.06577C10.1494 9.13147 10.203 9.21002 10.2396 9.29678C10.2762 9.38355 10.2951 9.47677 10.295 9.57094" stroke="#FF7629" stroke-width="1.5" stroke-linecap="round" stroke-linejoin="round"/>
<path d="M8.86648 9.57095C8.86385 9.47769 8.88029 9.38488 8.91477 9.29819C8.94925 9.2115 9.00107 9.13276 9.06704 9.06679C9.13301 9.00082 9.21175 8.94901 9.29844 8.91453C9.38512 8.88004 9.47794 8.86361 9.5712 8.86624" stroke="#FF7629" stroke-width="1.5" stroke-linecap="round" stroke-linejoin="round"/>
<path d="M9.57118 10.2946C9.47701 10.2946 9.38379 10.2758 9.29703 10.2392C9.21026 10.2026 9.13171 10.1489 9.06602 10.0815C9.00032 10.014 8.94882 9.93405 8.91454 9.84634C8.88027 9.75862 8.86392 9.66494 8.86647 9.5708" stroke="#FF7629" stroke-width="1.5" stroke-linecap="round" stroke-linejoin="round"/>
<path d="M10.295 9.5708C10.295 9.76275 10.2188 9.94684 10.0831 10.0826C9.94733 10.2183 9.76324 10.2946 9.57129 10.2946" stroke="#FF7629" stroke-width="1.5" stroke-linecap="round" stroke-linejoin="round"/>
<path d="M9.57085 1.00002C10.6971 0.99751 11.8127 1.21749 12.8537 1.64732C13.8947 2.07716 14.8406 2.70838 15.6369 3.50476C16.4333 4.30113 17.0645 5.24697 17.4944 6.28797C17.9242 7.32896 18.1442 8.4446 18.1417 9.57085C18.1417 13.2277 13.0182 20.1987 10.6946 23.1699C10.5609 23.3402 10.3903 23.4779 10.1956 23.5726C10.001 23.6673 9.78732 23.7165 9.57085 23.7165C9.35437 23.7165 9.14072 23.6673 8.94605 23.5726C8.75137 23.4779 8.58076 23.3402 8.44712 23.1699C6.12347 20.1987 1.00002 13.2277 1.00002 9.57085C0.99751 8.4446 1.21749 7.32896 1.64732 6.28797C2.07716 5.24697 2.70838 4.30113 3.50476 3.50476C4.30113 2.70838 5.24697 2.07716 6.28796 1.64732C7.32896 1.21749 8.4446 0.99751 9.57085 1.00002V1.00002Z" stroke="#FF7629" stroke-width="1.5" stroke-linecap="round" stroke-linejoin="round"/>
</svg>
