<svg width="80" height="34" viewBox="0 0 80 34" fill="none" xmlns="http://www.w3.org/2000/svg">
<path d="M65.0601 7.77071C65.8378 7.75198 66.5956 8.02193 67.1823 8.52878C67.7856 9.0797 68.2023 9.8003 68.3789 10.5936C68.6067 11.6009 68.6522 12.6403 68.5134 13.6633C68.3362 15.0212 67.9949 16.353 67.4967 17.63C67.0393 18.8862 66.4521 20.0921 65.7445 21.2286C65.444 21.7039 65.1221 22.1657 64.7801 22.6125C64.772 22.6241 64.7679 22.638 64.7685 22.6522C64.7691 22.6663 64.7743 22.6798 64.7834 22.6907C64.8023 22.7128 64.8345 22.7194 64.8612 22.7061C65.052 22.6013 65.2384 22.4888 65.4201 22.369C65.85 22.0913 66.2645 21.7916 66.6612 21.4699C67.7379 20.5912 68.5179 19.407 68.8967 18.0762C69.1256 17.273 69.3745 16.4785 69.6534 15.6962C70.0755 14.4811 70.5545 13.2861 71.0889 12.1153C71.4545 11.2912 71.8651 10.4875 72.3189 9.70775C72.6411 9.14801 73.1911 8.75025 73.8278 8.61693C74.388 8.49027 74.9706 8.49897 75.5267 8.64227C76.0341 8.76872 76.4904 9.0459 76.8345 9.43669C77.19 9.80801 77.2789 10.3578 77.0578 10.8206C76.9933 10.9892 76.8422 11.3627 76.5633 11.9533C76.2833 12.5428 75.99 13.2568 75.6578 14.0512C75.3245 14.8445 74.9822 15.7062 74.6411 16.6064C74.3322 17.4083 74.0724 18.2281 73.8634 19.0613C73.7024 19.6433 73.6331 20.2465 73.6578 20.8495C73.6934 21.2925 73.8645 21.2925 73.9534 21.2925C74.2245 21.2583 74.4756 21.1338 74.6656 20.9399C75.0445 20.6248 75.4034 20.2854 75.7389 19.9251C76.1167 19.524 76.4722 19.1031 76.8011 18.6624C77.1022 18.258 77.3622 17.9021 77.5722 17.5991C77.6611 17.4708 77.7805 17.366 77.9198 17.2942C78.0591 17.2223 78.2141 17.1855 78.3711 17.187C78.7056 17.187 79.0189 17.3512 79.2089 17.6245L79.1589 17.641C79.2419 17.7679 79.285 17.9165 79.2826 18.0678C79.2802 18.219 79.2325 18.3662 79.1456 18.4905C78.9211 18.8398 78.53 19.4271 77.9489 20.2843C77.3241 21.1944 76.6401 22.063 75.9011 22.8846C75.1263 23.7566 74.2599 24.5441 73.3167 25.2338C72.4872 25.8881 71.4672 26.2598 70.4078 26.2937C69.5389 26.2937 68.8934 25.9951 68.4823 25.4001C68.0818 24.7501 67.8871 23.9959 67.9234 23.235V23.094C67.9244 23.0699 67.9183 23.046 67.9059 23.0253C67.8934 23.0046 67.8752 22.9879 67.8534 22.9772C67.8313 22.9666 67.8067 22.9626 67.7824 22.9658C67.7581 22.9689 67.7353 22.979 67.7167 22.9948C67.5312 23.1403 67.3445 23.2857 67.1578 23.429C65.9688 24.3027 64.6672 25.0149 63.2878 25.5467C61.9434 26.0646 60.5134 26.3224 59.0723 26.3103C58.8712 26.3103 58.6645 26.297 58.4579 26.297C57.429 26.2937 56.6656 25.9698 56.1879 25.3362C56.104 25.2256 56.0268 25.11 55.9568 24.9903C55.9448 24.9682 55.9265 24.9502 55.9041 24.9386C55.8816 24.927 55.8562 24.9224 55.8312 24.9254C55.8061 24.9284 55.7825 24.9388 55.7635 24.9553C55.7444 24.9718 55.7309 24.9936 55.7245 25.0178C55.5656 25.5324 55.4223 26.0337 55.2856 26.5097C54.9901 27.5366 54.7301 28.4335 54.5201 29.2257C54.3112 30.0169 54.1123 30.7837 53.9612 31.4008C53.8101 32.0178 53.7045 32.5224 53.649 32.8927V32.907C53.5757 33.427 53.1768 33.8435 52.6568 33.9449C52.4857 33.9824 52.3123 34 52.1368 34C51.7954 33.9957 51.4572 33.9338 51.1368 33.8171C50.5983 33.62 50.1178 33.2928 49.739 32.8651C49.3144 32.3911 49.0879 31.7745 49.1057 31.1407C49.1579 30.6151 49.2612 30.0962 49.4123 29.5904C49.6134 28.7608 49.8846 27.7393 50.2234 26.5461C50.4412 25.7373 50.7201 24.8569 51.0001 23.916C51.0088 23.891 51.0091 23.8639 51.0011 23.8387C50.9931 23.8136 50.9772 23.7916 50.9557 23.776C50.9342 23.7599 50.9081 23.7512 50.8812 23.7512C50.8543 23.7512 50.8282 23.7599 50.8068 23.776C49.7587 24.4839 48.6339 25.073 47.4535 25.5324C46.1101 26.0502 44.679 26.3092 43.2379 26.297C43.0368 26.297 42.8301 26.2827 42.6235 26.2827C41.5946 26.2805 40.8324 25.9566 40.3546 25.3219C40.27 25.2113 40.192 25.0957 40.1213 24.9759C40.1092 24.9542 40.0908 24.9366 40.0686 24.9253C40.0463 24.914 40.0212 24.9095 39.9963 24.9125C39.9715 24.9154 39.9481 24.9257 39.9292 24.9419C39.9103 24.9581 39.8967 24.9795 39.8901 25.0035C39.7313 25.5213 39.5879 26.0194 39.4513 26.4965C39.1557 27.5256 38.9068 28.417 38.6857 29.2114C38.4657 30.0058 38.2635 30.7694 38.1135 31.3897C37.9881 31.8825 37.8836 32.3802 37.8002 32.8816V32.896C37.7268 33.416 37.3279 33.8325 36.8079 33.9339C36.6383 33.971 36.465 33.9895 36.2913 33.989C35.9499 33.9847 35.6117 33.9228 35.2913 33.8061C34.7528 33.609 34.2723 33.2818 33.8935 32.8541C33.4689 32.3801 33.2424 31.7635 33.2602 31.1297C33.3124 30.6041 33.4157 30.0852 33.5668 29.5794C34.0163 27.7974 34.5082 26.0263 35.0424 24.2675C35.0506 24.2411 35.0498 24.2128 35.0402 24.1869C35.0305 24.161 35.0126 24.139 34.9891 24.1242C34.9652 24.11 34.9373 24.104 34.9096 24.1069C34.8819 24.1099 34.856 24.1218 34.8357 24.1407C34.4213 24.5198 33.9868 24.8779 33.5335 25.2117C32.7172 25.8695 31.7069 26.2455 30.6557 26.2827C29.7891 26.2827 29.1413 25.9841 28.7302 25.3891C28.558 25.1338 28.4269 24.8535 28.3413 24.5583C28.3226 24.495 28.2874 24.4378 28.2392 24.3923C28.191 24.3468 28.1315 24.3148 28.0669 24.2994C28.002 24.2837 27.9341 24.2853 27.8701 24.3041C27.8061 24.3229 27.7482 24.3581 27.7024 24.4063C27.4191 24.7005 27.1091 24.9682 26.7746 25.2029C26.3281 25.5168 25.8436 25.7737 25.3324 25.9676C24.7769 26.1747 24.188 26.2794 23.5946 26.275C22.8073 26.2891 22.041 26.0229 21.4347 25.5247C20.8068 24.9917 20.3503 24.288 20.1213 23.5006C19.8447 22.502 19.7502 21.4624 19.8424 20.4308C19.9491 19.0855 20.2213 17.7567 20.6535 16.4752C21.6313 13.4948 22.8735 11.3186 24.4391 9.90828C26.0035 8.49572 27.5935 7.77843 29.1613 7.77843C29.7458 7.75662 30.3253 7.89379 30.8368 8.17509C31.258 8.41749 31.6035 8.77118 31.8346 9.19539C31.9868 9.47967 32.098 9.78377 32.1646 10.0989C32.168 10.1109 32.1748 10.1217 32.1843 10.13C32.1938 10.1382 32.2055 10.1435 32.218 10.1452C32.2304 10.1468 32.2431 10.1448 32.2545 10.1395C32.2659 10.1343 32.2756 10.1259 32.2824 10.1154C32.3602 9.97329 32.4357 9.84658 32.5079 9.72978C32.6652 9.45547 32.8788 9.21693 33.1349 9.0296C33.391 8.84228 33.6839 8.71032 33.9946 8.64227C34.5545 8.51453 35.1372 8.52209 35.6935 8.6643C36.2102 8.78771 36.6757 9.06648 37.0268 9.46204C37.3824 9.83336 37.4713 10.3832 37.249 10.8459C37.1857 11.0112 37.0179 11.3936 36.7557 11.9775C36.065 13.5098 35.4218 15.0626 34.8268 16.6339C34.5181 17.4359 34.2587 18.2557 34.0502 19.0888C33.8889 19.6708 33.8192 20.274 33.8435 20.8771C33.8802 21.32 34.0502 21.32 34.1402 21.32C34.4113 21.2859 34.6624 21.1614 34.8524 20.9674C35.0479 20.7967 35.2524 20.6149 35.459 20.4143C36.242 19.6734 36.8283 18.7522 37.1657 17.7324C37.6435 16.3342 38.149 14.9536 38.6657 13.6226C39.1597 12.3454 39.6948 11.0843 40.2701 9.84107C40.5046 9.30447 40.9601 8.89349 41.5224 8.71168C42.0379 8.5409 42.589 8.50344 43.1224 8.6037C43.6298 8.69312 44.1059 8.90927 44.5057 9.23175C44.6666 9.35911 44.8055 9.51171 44.9168 9.68351C44.9446 9.71326 44.9757 9.71876 45.0146 9.68351C45.4801 9.25379 45.9835 8.86814 46.5179 8.52878C47.3177 8.02254 48.2492 7.75905 49.1979 7.77071C49.9758 7.75231 50.7327 8.02266 51.3201 8.52878C51.9212 9.0797 52.3368 9.8014 52.5112 10.5936C52.739 11.6007 52.7845 12.6408 52.6445 13.6633C52.4679 15.0213 52.1266 16.3532 51.6279 17.63C51.1708 18.8862 50.584 20.0921 49.8768 21.2286C49.5634 21.7244 49.2434 22.1872 48.9157 22.6125C48.907 22.6239 48.9026 22.6379 48.9032 22.6522C48.9038 22.6665 48.9094 22.6801 48.919 22.6907C48.9379 22.7128 48.9701 22.7194 48.9968 22.7061C49.1823 22.6037 49.369 22.4913 49.5546 22.369C49.8646 22.1673 50.1557 21.9591 50.4301 21.7431C51.5123 20.9196 52.321 19.7937 52.7523 18.5103C53.2993 16.8619 53.888 15.2273 54.5179 13.6083C55.0106 12.3308 55.5453 11.0696 56.1212 9.82675C56.3556 9.29015 56.8112 8.87916 57.3734 8.69736C57.889 8.52657 58.4401 8.48911 58.9734 8.58938C59.4807 8.67926 59.9567 8.89536 60.3567 9.21743C60.5234 9.34965 60.6678 9.50611 60.7823 9.68351C60.8101 9.71326 60.8412 9.71876 60.8801 9.68351C61.345 9.25435 61.8481 8.86785 62.3834 8.52878C63.1821 8.02292 64.1124 7.75944 65.0601 7.77071V7.77071ZM13.0225 0.683682C14.2189 0.6823 15.4114 0.81949 16.5758 1.09246C17.6837 1.3423 18.7459 1.76082 19.7247 2.33314C20.6224 2.85629 21.3977 3.56277 21.9991 4.4057C22.5935 5.26072 22.9024 6.27882 22.8847 7.31455C22.8951 8.45674 22.6287 9.5847 22.108 10.6035C21.5801 11.619 20.8725 12.5323 20.0191 13.2997C19.0989 14.1241 18.0703 14.8209 16.9613 15.3712C15.9858 15.8582 14.9725 16.267 13.9302 16.5909C13.9017 16.5958 13.8763 16.6116 13.8595 16.6349C13.8426 16.6582 13.8357 16.6871 13.8402 16.7154C13.8625 17.2388 13.9025 17.7512 13.9513 18.2492C14.0113 18.8189 14.0925 19.3753 14.1869 19.9097C14.3432 20.7834 14.5695 21.6433 14.8636 22.4814C15.2063 23.4591 15.6766 24.3881 16.2625 25.2448C16.4691 25.5346 16.6936 25.8122 16.9369 26.0745C17.1613 26.3169 17.4036 26.545 17.6602 26.7554C17.9002 26.9515 18.1558 27.13 18.4224 27.2898C18.9283 27.592 19.4809 27.8094 20.058 27.9333C20.3413 27.9972 20.6302 28.0379 20.9213 28.0556C21.2213 28.0776 21.5213 28.0776 21.8213 28.0556C22.1369 28.0291 22.4502 27.9784 22.7591 27.9068C23.0902 27.8297 23.4146 27.7305 23.7313 27.6104C24.0758 27.4815 24.4102 27.3317 24.7346 27.162C24.8635 27.0959 24.9891 27.0265 25.118 26.9548C25.3179 26.8376 25.5549 26.7988 25.7822 26.8463C26.0095 26.8938 26.2107 27.024 26.346 27.2112C26.4812 27.3985 26.5409 27.6292 26.5131 27.8579C26.4852 28.0866 26.372 28.2967 26.1957 28.4467C25.621 28.9456 25.0194 29.4131 24.3935 29.8472C24.0064 30.1154 23.6067 30.3655 23.1958 30.5964C22.9925 30.7141 22.7854 30.8251 22.5747 30.9292C22.1747 31.1308 21.7635 31.3115 21.3424 31.4691C20.9434 31.6165 20.5356 31.7394 20.1213 31.8371C19.4579 32.0001 18.777 32.0829 18.0936 32.0839H17.7636C17.2022 32.0587 16.6454 31.9715 16.1036 31.8239C15.926 31.775 15.7506 31.7184 15.578 31.6542C14.8906 31.4022 14.2442 31.0517 13.6591 30.614C13.1125 30.2049 12.6187 29.7305 12.1891 29.2015C11.9401 28.9034 11.7089 28.5911 11.4969 28.266C11.0446 27.575 10.6617 26.8417 10.3536 26.0767C10.0177 25.2394 9.74579 24.3783 9.54025 23.5006C9.43137 23.0378 9.34025 22.5585 9.26137 22.077C9.18961 21.6389 9.13181 21.1987 9.08803 20.757C9.08686 20.7265 9.07464 20.6975 9.05362 20.6752C9.0326 20.6529 9.00418 20.639 8.97359 20.6358C8.94285 20.6333 8.91222 20.6419 8.88747 20.6602C8.86272 20.6784 8.84553 20.705 8.83915 20.735H8.83359C8.66581 21.3211 8.50915 21.8919 8.38693 22.434C8.20026 23.1282 8.04137 23.7518 7.90915 24.3049C7.76915 24.8591 7.67137 25.2911 7.62915 25.6117C7.53804 26.1604 7.09582 26.5846 6.54027 26.6584C5.98305 26.7556 5.40993 26.7078 4.87694 26.5196C4.30345 26.33 3.78283 26.0096 3.35694 25.5842C3.1252 25.3577 2.94265 25.0867 2.82055 24.7876C2.69844 24.4886 2.63936 24.168 2.64695 23.8454C2.69917 22.932 2.84361 22.0274 3.07806 21.1415C3.35694 19.913 3.77028 18.4508 4.29583 16.8036C4.87425 15.0026 5.50039 13.217 6.1736 11.4487C6.79582 9.78708 7.49582 8.14313 8.25137 6.5069C8.50026 5.97141 9.01359 5.60339 9.6047 5.53508C10.763 5.37482 11.9406 5.41321 13.0858 5.64857C13.2246 5.68105 13.3544 5.7435 13.466 5.83146C13.5776 5.91942 13.6683 6.03072 13.7315 6.15743C13.7948 6.28414 13.8291 6.42313 13.8319 6.56448C13.8348 6.70584 13.8061 6.84607 13.748 6.97518C13.1276 8.34766 12.5473 9.73766 12.008 11.1434C11.5858 12.2508 11.1691 13.3416 10.7969 14.4016C10.7888 14.425 10.7877 14.4504 10.7938 14.4744C10.7999 14.4985 10.813 14.5203 10.8314 14.5371C10.8691 14.5702 10.9247 14.579 10.9714 14.5569C11.4914 14.3145 11.9947 14.0369 12.4769 13.7262C13.2821 13.2144 14.0167 12.601 14.6625 11.9015C15.2956 11.2132 15.8177 10.4319 16.2102 9.58544C16.6036 8.73252 16.8057 7.8051 16.8024 6.8672C16.8024 5.62433 16.4558 4.7076 15.7713 4.14015C15.0869 3.5727 14.1002 3.2686 12.8569 3.2686C11.6072 3.25206 10.3759 3.56826 9.29137 4.18423C8.24067 4.78222 7.30053 5.55355 6.51138 6.46503C5.76937 7.31775 5.16243 8.27741 4.71138 9.31108C4.33334 10.1161 4.11817 10.9868 4.07805 11.874C4.0888 12.1094 4.01825 12.3414 3.87805 12.5318C3.73785 12.7221 3.53639 12.8593 3.30694 12.9207C2.84724 13.0576 2.35422 13.0351 1.90917 12.8568C1.38483 12.6433 0.931911 12.2873 0.602509 11.8299C0.179955 11.2337 -0.0307222 10.515 0.00362197 9.78708C0.00362197 9.04554 0.283621 8.17068 0.870285 7.11622C1.51844 5.98777 2.35991 4.97994 3.35694 4.13795C4.57495 3.11332 5.95197 2.29066 7.43471 1.70178C9.21069 0.999457 11.1096 0.653776 13.0214 0.684783L13.0225 0.683682ZM47.1646 11.063L47.1379 11.0663C46.9866 11.087 46.8448 11.1514 46.7301 11.2514C46.3398 11.5504 45.9912 11.8994 45.6935 12.2894C45.2494 12.8554 44.8462 13.4519 44.4868 14.0743C44.0458 14.8285 43.6539 15.6098 43.3135 16.4135C42.9701 17.2201 42.6724 18.0443 42.4212 18.8828C42.2057 19.5824 42.0313 20.294 41.899 21.0137C41.7968 21.5095 41.769 22.0164 41.8157 22.5199C41.8712 22.943 42.0024 23.0323 42.0412 23.0488C42.0595 23.0532 42.0786 23.0532 42.0968 23.0488C42.2483 23.029 42.3905 22.9654 42.5057 22.8659C42.8979 22.5651 43.2457 22.2114 43.539 21.8148C43.9779 21.2418 44.3746 20.6402 44.7279 20.0122C45.1323 19.3004 45.5346 18.5092 45.9257 17.6619C46.2701 16.8587 46.5701 16.0367 46.8257 15.2015C47.039 14.5074 47.2135 13.8011 47.3479 13.086L47.3368 13.0816C47.439 12.5924 47.4668 12.0921 47.4201 11.5941C47.3623 11.1743 47.2312 11.0828 47.1912 11.0652C47.1736 11.0619 47.1555 11.0619 47.1379 11.0652L47.1646 11.063V11.063ZM63.0267 11.0608L63.0001 11.063C62.8491 11.0849 62.7076 11.1491 62.5923 11.2481C62.2045 11.5456 61.859 11.8916 61.5645 12.2783C61.1201 12.8436 60.7156 13.4408 60.3567 14.0633C59.9167 14.825 59.5259 15.6137 59.1867 16.4246C58.8403 17.2268 58.5391 18.0474 58.2845 18.8828C58.0679 19.5824 57.8934 20.2931 57.7623 21.0137C57.6582 21.5088 57.6297 22.0165 57.6779 22.5199C57.7334 22.943 57.8645 23.0323 57.9045 23.0488C57.9228 23.0532 57.9418 23.0532 57.9601 23.0488C58.1112 23.0289 58.253 22.9653 58.3679 22.8659C58.7601 22.564 59.1079 22.2103 59.4012 21.8148C59.8401 21.2418 60.2345 20.6402 60.5867 20.0122C60.9945 19.3004 61.3967 18.5092 61.7878 17.6619C62.129 16.8576 62.4256 16.0334 62.6767 15.196C62.8901 14.5019 63.0656 13.7956 63.199 13.0805C63.299 12.5902 63.3278 12.0888 63.2801 11.5919C63.2245 11.171 63.0923 11.0795 63.0534 11.063C63.0358 11.0597 63.0177 11.0597 63.0001 11.063L63.0267 11.0608V11.0608ZM29.8646 10.9859L29.8402 10.9881C29.6969 11.0084 29.5632 11.0714 29.4568 11.1688C29.0835 11.4685 28.7569 11.8222 28.488 12.2177C28.0813 12.7885 27.7213 13.3901 27.4091 14.017C27.0216 14.7836 26.6709 15.5679 26.358 16.3673C26.0386 17.1662 25.7728 17.9852 25.5624 18.8189C25.3844 19.51 25.2593 20.2135 25.188 20.9234C25.1324 21.4225 25.138 21.9282 25.2069 22.4263C25.2802 22.8527 25.4169 22.9463 25.4558 22.9629C25.4734 22.9662 25.4915 22.9662 25.5091 22.9629C25.652 22.9432 25.7854 22.8805 25.8913 22.7833C26.2635 22.4858 26.5913 22.1387 26.8635 21.7509C27.2724 21.1889 27.6324 20.5939 27.9424 19.9736C28.3091 19.2541 28.6602 18.453 28.9935 17.6234C29.3113 16.8234 29.578 16.0037 29.7891 15.1707C29.9668 14.4743 30.0968 13.7669 30.1802 13.0529C30.2549 12.5518 30.2511 12.0423 30.1691 11.5423C30.0746 11.1016 29.9324 11.0079 29.8902 10.9881C29.8737 10.9848 29.8567 10.9848 29.8402 10.9881L29.8646 10.9859V10.9859ZM76.4567 0.000541198C76.9217 0.000251716 77.3822 0.0907943 77.812 0.266999C78.2417 0.443205 78.6322 0.701621 78.9613 1.0275C79.2903 1.35337 79.5514 1.74032 79.7296 2.16625C79.9078 2.59218 79.9997 3.04875 80 3.5099C79.9999 3.97114 79.9081 4.42783 79.7299 4.85389C79.5518 5.27995 79.2907 5.66703 78.9617 5.99302C78.6326 6.31901 78.242 6.57752 77.8122 6.7538C77.3824 6.93007 76.9218 7.02065 76.4567 7.02036C75.9866 7.02869 75.5196 6.94408 75.0828 6.77147C74.6461 6.59886 74.2484 6.3417 73.9129 6.01501C73.5775 5.68832 73.311 5.29864 73.1291 4.86871C72.9472 4.43879 72.8535 3.97725 72.8534 3.51101C72.8534 3.04478 72.9469 2.5832 73.1287 2.15322C73.3105 1.72324 73.5768 1.33348 73.9121 1.00669C74.2475 0.67989 74.6451 0.422608 75.0818 0.249859C75.5185 0.0771101 75.9855 -0.007645 76.4556 0.000541198H76.4567Z" fill="#FF441F"/>
</svg>
