<svg width="114" height="114" viewBox="0 0 114 114" fill="none" xmlns="http://www.w3.org/2000/svg">
<circle cx="57" cy="57" r="57" fill="#FFEDE1"/>
<path d="M71.6816 32.9188H74.2387C76.1056 32.8241 77.9348 33.4668 79.3322 34.7083C80.7296 35.9499 81.5831 37.6908 81.7089 39.5558C81.5904 41.4259 80.7399 43.174 79.3418 44.4216C77.9436 45.6692 76.1102 46.3158 74.2387 46.2214H71.7391" stroke="#FF7629" stroke-width="4" stroke-linecap="round" stroke-linejoin="round"/>
<path d="M64.9583 61.765C64.7827 61.3128 64.4808 60.9207 64.0885 60.6355C63.6963 60.3502 63.2302 60.1837 62.746 60.156H51.2535C50.7493 60.1616 50.2584 60.3178 49.8437 60.6045C49.429 60.8912 49.1095 61.2953 48.9262 61.765L42.6341 78.1418C42.4332 78.6929 42.4325 79.297 42.6321 79.8485C42.8317 80.4 43.2189 80.8637 43.7259 81.1586C47.6365 83.6776 52.1899 85.0172 56.8417 85.0172C61.4935 85.0172 66.0469 83.6776 69.9575 81.1586C70.4645 80.8637 70.8517 80.4 71.0513 79.8485C71.2509 79.297 71.2502 78.6929 71.0493 78.1418L64.9583 61.765Z" stroke="#FF7629" stroke-width="4" stroke-linecap="round" stroke-linejoin="round"/>
<path d="M48.668 62.2248L41.0542 59.3517C40.6935 59.2142 40.2995 59.19 39.9247 59.2824C39.5499 59.3749 39.2122 59.5794 38.9568 59.8689L30.1076 69.695C29.7984 70.0207 29.626 70.4526 29.626 70.9017C29.626 71.3508 29.7984 71.7827 30.1076 72.1084C33.6564 75.328 38.1736 77.2784 42.9505 77.6536" stroke="#FF7629" stroke-width="4" stroke-linecap="round" stroke-linejoin="round"/>
<path d="M30.28 69.5225C28.0288 67.3912 26.3749 64.7076 25.4827 61.7387C24.5905 58.7698 24.4911 55.619 25.1946 52.5998C25.28 52.2161 25.4661 51.8622 25.7338 51.5744C26.0014 51.2865 26.3409 51.0752 26.7173 50.9621C27.0917 50.8224 27.5003 50.8026 27.8864 50.9056C28.2726 51.0085 28.6171 51.2291 28.8722 51.5367C30.7586 55.6145 34.0985 58.8417 38.2386 60.5871" stroke="#FF7629" stroke-width="4" stroke-linecap="round" stroke-linejoin="round"/>
<path d="M65.1602 62.2823L72.9463 59.2655C73.307 59.128 73.7011 59.1038 74.0759 59.1963C74.4507 59.2887 74.7883 59.4933 75.0437 59.7827L83.893 69.695C84.2022 70.0207 84.3746 70.4526 84.3746 70.9017C84.3746 71.3508 84.2022 71.7828 83.893 72.1084C80.2984 75.3806 75.6995 77.3357 70.849 77.6536" stroke="#FF7629" stroke-width="4" stroke-linecap="round" stroke-linejoin="round"/>
<path d="M83.7203 69.5225C85.9715 67.3912 87.6254 64.7076 88.5176 61.7387C89.4098 58.7698 89.5091 55.619 88.8057 52.5998C88.7203 52.2161 88.5341 51.8622 88.2665 51.5744C87.9989 51.2865 87.6594 51.0752 87.283 50.9621C86.9086 50.8224 86.5 50.8026 86.1139 50.9056C85.7277 51.0085 85.3832 51.2291 85.1281 51.5367C83.2417 55.6145 79.9018 58.8417 75.7617 60.5871" stroke="#FF7629" stroke-width="4" stroke-linecap="round" stroke-linejoin="round"/>
<path d="M71.6816 52.686V33.2924C71.6816 32.1494 71.2275 31.0532 70.4193 30.2449C69.611 29.4367 68.5149 28.9827 67.3719 28.9827H45.8234C44.6804 28.9827 43.5842 29.4367 42.776 30.2449C41.9677 31.0532 41.5137 32.1494 41.5137 33.2924V52.4562" stroke="#FF7629" stroke-width="4" stroke-linecap="round" stroke-linejoin="round"/>
</svg>
