<svg width="114" height="114" viewBox="0 0 114 114" fill="none" xmlns="http://www.w3.org/2000/svg">
<circle cx="57" cy="57" r="57" fill="#FFEDE1"/>
<path d="M75.7313 78.1269C75.635 79.2795 75.1093 80.354 74.2582 81.1373C73.4072 81.9206 72.2929 82.3556 71.1363 82.3562H43.438C42.2816 82.3556 41.1676 81.9204 40.3169 81.1371C39.4662 80.3537 38.941 79.2794 38.8452 78.1269L31.9275 34.1356C31.8795 33.5234 32.0764 32.9171 32.4751 32.4499C32.8737 31.9827 33.4414 31.6928 34.0536 31.6438H34.2342H79.7731C80.3833 31.6444 80.9684 31.8867 81.4003 32.3178C81.8322 32.7488 82.0757 33.3334 82.0775 33.9436C82.0809 34.0068 82.0809 34.0702 82.0775 34.1334L75.7313 78.1269Z" stroke="#FF7629" stroke-width="4" stroke-linecap="round" stroke-linejoin="round"/>
<path d="M70.6284 67.1322L64.2113 63.549C63.1739 62.9698 61.8635 63.3412 61.2842 64.3785L58.0934 70.0931C57.5141 71.1304 57.8855 72.4409 58.9228 73.0201L65.34 76.6033C66.3773 77.1825 67.6878 76.8111 68.267 75.7738L71.4579 70.0592C72.0371 69.0219 71.6657 67.7114 70.6284 67.1322Z" stroke="#FF7629" stroke-width="4" stroke-linecap="round" stroke-linejoin="round"/>
<path d="M54.0315 62.5842L51.4708 56.422C51.0571 55.4263 49.9145 54.9546 48.9188 55.3683L43.4321 57.6483C42.4364 58.062 41.9647 59.2046 42.3784 60.2003L44.9391 66.3625C45.3529 67.3582 46.4954 67.83 47.4911 67.4162L52.9778 65.1363C53.9735 64.7225 54.4453 63.5799 54.0315 62.5842Z" stroke="#FF7629" stroke-width="4" stroke-linecap="round" stroke-linejoin="round"/>
<path d="M34.4263 50.0261H79.7801" stroke="#FF7629" stroke-width="4" stroke-linecap="round" stroke-linejoin="round"/>
</svg>
