<svg width="152" height="24" viewBox="0 0 152 24" fill="none" xmlns="http://www.w3.org/2000/svg">
<path d="M0 23.6455V0H10.0616C14.3985 0 17.2096 3.12089 17.2096 7.18574C17.2096 11.3122 14.3906 14.3676 10.0616 14.3676H3.848V23.6455H0ZM3.84406 3.2018V11.2236H9.89599C11.82 11.2236 13.3655 9.29716 13.3655 7.1973C13.3655 5.09745 11.82 3.2018 9.89599 3.2018H3.84406ZM36.627 18.6367C37.865 18.4017 39.0675 18.1666 40.27 17.9624C40.5105 19.3071 41.3345 20.9176 44.114 20.9176C44.733 20.9176 47.7925 20.6826 47.7925 18.5365C47.7925 14.4717 37.1474 18.6675 37.1474 11.3855C37.1474 8.49574 40.1004 6.31498 43.8104 6.31498C47.5204 6.31498 50.6824 7.82533 51.195 11.6205C49.9609 11.8208 48.7584 12.0559 47.5559 12.2909C47.3154 10.1756 45.9789 9.40504 43.9129 9.40504C42.0915 9.40504 40.8574 10.3452 40.8574 11.3855C40.8574 12.761 42.1624 13.1308 44.2244 13.3312C48.1394 13.7358 51.471 14.5718 51.471 18.5365C51.471 22.0928 48.2774 23.973 44.118 23.973C39.6549 23.973 37.1119 21.6921 36.627 18.6367V18.6367ZM52.4369 9.38963V6.63478H55.4254V1.74539H59.1394V6.64633H62.7469V9.38963H59.1394V19.022C59.1394 20.3667 59.5533 20.7674 60.7558 20.7674C61.2684 20.7674 62.4039 20.7019 62.4039 20.7019V23.6455C62.4039 23.6455 61.0752 23.7804 59.7584 23.7804C56.4939 23.7804 55.4215 22.0658 55.4215 18.8101V9.38963H52.4369ZM75.6629 14.1673C75.6629 11.582 75.0794 9.40119 72.2959 9.40119C69.6504 9.40119 68.9289 11.582 68.9289 14.1673V23.6455H65.2189V6.64633H68.6017L68.9447 8.49189C69.4611 7.55177 71.5231 6.31112 73.5496 6.31112C76.4317 6.31112 77.8077 7.85231 78.3912 8.86178C79.3177 7.35142 81.5847 6.31112 83.6112 6.31112C88.3424 6.31112 89.7972 9.13148 89.7972 14.1673V23.6455H86.1069V14.1673C86.1069 11.6166 85.3854 9.36651 82.7399 9.36651C79.9564 9.36651 79.3729 11.5473 79.3729 14.1673V23.6455H75.6629V14.1673ZM96.5154 12.472C95.3326 12.2716 94.0789 12.0019 92.8409 11.8016C93.2352 8.0411 96.3893 6.29572 100.02 6.29572C104.933 6.29572 107.476 8.64601 107.476 13.2773V19.1877C107.476 20.1933 107.681 20.7635 108.402 20.7635C108.705 20.7605 109.005 20.7151 109.293 20.6287V23.5839C108.578 23.7735 107.839 23.8643 107.097 23.8536C106.374 23.8991 105.66 23.6752 105.099 23.227C104.538 22.7787 104.172 22.1395 104.073 21.4378C103.406 22.2132 102.576 22.8392 101.639 23.2733C100.702 23.7074 99.6811 23.9395 98.6445 23.9538C94.6269 23.9538 92.2219 21.773 92.2219 18.5596C92.2219 15.9088 94.7294 13.493 99.3186 13.493H103.786V12.472C103.786 11.162 103.234 9.38963 100.04 9.38963C97.9111 9.38963 96.6061 10.4299 96.5351 12.472H96.5154ZM103.786 17.0377V16.1978H99.6774C96.6179 16.1978 96.0029 17.7081 96.0029 18.5481C96.0029 19.704 96.7914 20.8984 99.0584 20.8984C102.082 20.8984 103.766 18.8833 103.766 17.0454L103.786 17.0377ZM26.25 24C24.4618 24 22.7138 23.4818 21.227 22.5108C19.7402 21.5398 18.5815 20.1598 17.8973 18.5452C17.2132 16.9307 17.0344 15.1541 17.3836 13.4402C17.7327 11.7263 18.5941 10.1521 19.8588 8.91668C21.1235 7.68127 22.7348 6.84014 24.4887 6.49968C26.2426 6.15922 28.0605 6.33473 29.7124 7.00401C31.3642 7.67329 32.7759 8.80626 33.7688 10.2596C34.7617 11.713 35.2912 13.4215 35.2904 15.169C35.2883 17.5112 34.3351 19.7568 32.64 21.4126C30.9449 23.0684 28.6467 23.999 26.25 24V24ZM26.25 9.69787C25.1427 9.69787 24.0603 10.0187 23.1396 10.6199C22.2189 11.2211 21.5014 12.0756 21.0776 13.0753C20.6539 14.075 20.543 15.1751 20.759 16.2364C20.9751 17.2977 21.5083 18.2726 22.2912 19.0378C23.0742 19.8029 24.0718 20.324 25.1578 20.5351C26.2438 20.7462 27.3695 20.6379 28.3925 20.2238C29.4154 19.8097 30.2898 19.1084 30.905 18.2087C31.5202 17.3089 31.8485 16.2511 31.8485 15.169C31.8475 13.7183 31.2573 12.3273 30.2076 11.3015C29.1579 10.2756 27.7345 9.69889 26.25 9.69787ZM132.381 17.7274C133.513 18.0279 134.649 18.3631 135.78 18.7022C134.992 21.1527 132.626 23.973 127.895 23.973C123.164 23.973 119.722 20.3782 119.722 15.1421C119.722 9.90592 122.876 6.31112 127.725 6.31112C132.575 6.31112 135.555 9.46669 135.555 14.6065C135.565 15.1442 135.543 15.6819 135.488 16.2171H123.554C123.621 18.7022 125.372 20.9176 127.891 20.9176C129.712 20.9176 131.498 20.0777 132.393 17.7274H132.381ZM131.605 13.4892C131.502 10.9732 130.268 9.35881 127.725 9.35881C125.249 9.35881 123.842 11.3739 123.739 13.4892H131.605ZM137.156 18.6367C138.394 18.4017 139.593 18.1666 140.795 17.9663C141.036 19.3071 141.863 20.9215 144.643 20.9215C145.262 20.9215 148.322 20.6865 148.322 18.5365C148.322 14.4755 137.676 18.6714 137.676 11.3855C137.676 8.4996 140.629 6.31498 144.339 6.31498C148.049 6.31498 151.208 7.82918 151.724 11.6205C150.486 11.8208 149.284 12.0559 148.085 12.2909C147.844 10.1756 146.508 9.40504 144.442 9.40504C142.62 9.40504 141.386 10.3452 141.386 11.3855C141.386 12.761 142.691 13.1308 144.75 13.3312C148.668 13.7358 152 14.5757 152 18.5365C152 22.0966 148.803 23.973 144.647 23.973C140.184 23.973 137.641 21.6921 137.156 18.6367V18.6367ZM108.745 9.38963V6.63478H111.734V1.74539H115.444V6.64633H119.067V9.38963H115.46V19.022C115.46 20.3667 115.874 20.7674 117.076 20.7674C117.589 20.7674 118.724 20.7019 118.724 20.7019V23.6455C118.724 23.6455 117.396 23.7804 116.079 23.7804C112.814 23.7804 111.742 22.0658 111.742 18.8101V9.38963H108.745Z" fill="black"/>
</svg>
