<svg width="114" height="114" viewBox="0 0 114 114" fill="none" xmlns="http://www.w3.org/2000/svg">
<circle cx="57" cy="57" r="57" fill="#FFEDE1"/>
<path d="M41.7464 43.7801C41.9476 43.7801 42.1444 43.8398 42.3116 43.9516C42.4789 44.0635 42.6093 44.2225 42.6862 44.4084C42.763 44.5944 42.783 44.799 42.7436 44.9964C42.7041 45.1937 42.607 45.3749 42.4645 45.517C42.322 45.6591 42.1406 45.7557 41.9431 45.7947C41.7457 45.8336 41.5411 45.8131 41.3554 45.7357C41.1696 45.6583 41.011 45.5275 40.8996 45.36C40.7881 45.1924 40.729 44.9955 40.7295 44.7943C40.7291 44.6606 40.7552 44.5282 40.8062 44.4047C40.8572 44.2811 40.932 44.1689 41.0265 44.0744C41.121 43.9799 41.2333 43.905 41.3568 43.854C41.4804 43.803 41.6128 43.777 41.7464 43.7773" stroke="#FF7629" stroke-width="4" stroke-linecap="round" stroke-linejoin="round"/>
<path d="M52.661 46.8308C52.8621 46.8308 53.0587 46.8905 53.2259 47.0022C53.3931 47.1139 53.5235 47.2728 53.6005 47.4586C53.6774 47.6444 53.6976 47.8488 53.6583 48.0461C53.6191 48.2434 53.5222 48.4246 53.38 48.5668C53.2378 48.709 53.0566 48.8058 52.8593 48.8451C52.6621 48.8843 52.4576 48.8642 52.2718 48.7872C52.086 48.7103 51.9272 48.5799 51.8154 48.4127C51.7037 48.2455 51.644 48.0488 51.644 47.8477C51.6437 47.7141 51.6697 47.5817 51.7207 47.4581C51.7717 47.3346 51.8466 47.2224 51.9411 47.1279C52.0356 47.0334 52.1478 46.9585 52.2714 46.9075C52.3949 46.8565 52.5273 46.8305 52.661 46.8308Z" fill="#FF7629" stroke="#FF7629" stroke-width="4" stroke-linecap="round" stroke-linejoin="round"/>
<path d="M72.2537 46.8308C72.4549 46.8308 72.6515 46.8905 72.8187 47.0022C72.9859 47.1139 73.1163 47.2728 73.1932 47.4586C73.2702 47.6444 73.2903 47.8488 73.2511 48.0461C73.2119 48.2434 73.115 48.4246 72.9728 48.5668C72.8306 48.709 72.6494 48.8058 72.4521 48.8451C72.2549 48.8843 72.0504 48.8642 71.8646 48.7872C71.6788 48.7103 71.5199 48.5799 71.4082 48.4127C71.2965 48.2455 71.2368 48.0488 71.2368 47.8477C71.2365 47.7141 71.2625 47.5817 71.3135 47.4581C71.3645 47.3346 71.4394 47.2224 71.5339 47.1279C71.6284 47.0334 71.7406 46.9585 71.8642 46.9075C71.9877 46.8565 72.1201 46.8305 72.2537 46.8308Z" fill="#FF7629" stroke="#FF7629" stroke-width="4" stroke-linecap="round" stroke-linejoin="round"/>
<path d="M62.8358 42.7632C63.0369 42.7632 63.2335 42.8228 63.4007 42.9346C63.568 43.0463 63.6983 43.2051 63.7753 43.3909C63.8522 43.5768 63.8724 43.7812 63.8331 43.9785C63.7939 44.1757 63.697 44.3569 63.5548 44.4992C63.4126 44.6414 63.2314 44.7382 63.0341 44.7775C62.8369 44.8167 62.6324 44.7966 62.4466 44.7196C62.2608 44.6426 62.102 44.5123 61.9902 44.3451C61.8785 44.1778 61.8189 43.9812 61.8189 43.7801C61.8185 43.6465 61.8446 43.5141 61.8955 43.3905C61.9465 43.267 62.0214 43.1547 62.1159 43.0602C62.2104 42.9657 62.3226 42.8908 62.4462 42.8399C62.5697 42.7889 62.7021 42.7628 62.8358 42.7632Z" fill="#FF7629" stroke="#FF7629" stroke-width="4" stroke-linecap="round" stroke-linejoin="round"/>
<path d="M26.4927 54.9661H87.5071V67.1689H26.4927V54.9661Z" stroke="#FF7629" stroke-width="4" stroke-linecap="round" stroke-linejoin="round"/>
<path d="M83.4392 55.3159V51.411C83.4392 49.2068 83.005 47.0241 82.1614 44.9877C81.3178 42.9514 80.0814 41.1011 78.5226 39.5426C76.9639 37.9841 75.1134 36.748 73.0769 35.9047C71.0404 35.0614 68.8577 34.6276 66.6535 34.6279H47.3458C45.1416 34.6276 42.9589 35.0614 40.9224 35.9047C38.8859 36.748 37.0354 37.9841 35.4767 39.5426C33.9179 41.1011 32.6814 42.9514 31.8379 44.9877C30.9943 47.0241 30.5601 49.2068 30.5601 51.411V55.3159" stroke="#FF7629" stroke-width="4" stroke-linecap="round" stroke-linejoin="round"/>
<path d="M83.4392 66.8218V71.2365C83.4392 73.3941 82.5821 75.4633 81.0565 76.989C79.5308 78.5147 77.4616 79.3718 75.304 79.3718H38.6953C36.5377 79.3718 34.4685 78.5147 32.9428 76.989C31.4172 75.4633 30.5601 73.3941 30.5601 71.2365V66.8218" stroke="#FF7629" stroke-width="4" stroke-linecap="round" stroke-linejoin="round"/>
</svg>
