<svg width="114" height="114" viewBox="0 0 114 114" fill="none" xmlns="http://www.w3.org/2000/svg">
<circle cx="57" cy="57" r="57" fill="#FFEDE1"/>
<path d="M36.7895 58.7949H76.2855V79.1413C76.2855 80.411 75.7811 81.6287 74.8833 82.5265C73.9855 83.4243 72.7678 83.9287 71.4981 83.9287H41.5769C40.3072 83.9287 39.0895 83.4243 38.1917 82.5265C37.2939 81.6287 36.7895 80.411 36.7895 79.1413V58.7949Z" stroke="#FF7629" stroke-width="3" stroke-linecap="round" stroke-linejoin="round"/>
<path d="M76.2855 62.3857H83.4665" stroke="#FF7629" stroke-width="3" stroke-linecap="round" stroke-linejoin="round"/>
<path d="M36.7895 62.3857H29.6084" stroke="#FF7629" stroke-width="3" stroke-linecap="round" stroke-linejoin="round"/>
<path d="M36.7895 58.7951C36.7895 50.8624 45.6318 48.0234 56.5375 48.0234C67.4432 48.0234 76.2855 50.8624 76.2855 58.7951" stroke="#FF7629" stroke-width="3" stroke-linecap="round" stroke-linejoin="round"/>
<path d="M61.9233 73.1572H65.5139" stroke="#FF7629" stroke-width="3" stroke-linecap="round" stroke-linejoin="round"/>
<path d="M56.5375 40.8423V48.0234" stroke="#FF7629" stroke-width="3" stroke-linecap="round" stroke-linejoin="round"/>
<path d="M72.6948 30.0708C76.1345 36.9479 67.546 35.7702 72.6948 42.6377" stroke="#FF7629" stroke-width="3" stroke-linecap="round" stroke-linejoin="round"/>
<path d="M40.2747 30.0708C43.7145 36.9479 35.1259 35.7702 40.2747 42.6377" stroke="#FF7629" stroke-width="3" stroke-linecap="round" stroke-linejoin="round"/>
</svg>
