<svg width="114" height="114" viewBox="0 0 114 114" fill="none" xmlns="http://www.w3.org/2000/svg">
<circle cx="57" cy="57" r="57" fill="#FFEDE1"/>
<path d="M68.7233 31.5732C72.2008 38.5306 61.7006 40.9716 66.9071 47.9192" stroke="#FF7629" stroke-width="3" stroke-linecap="round" stroke-linejoin="round"/>
<path d="M57.826 31.5732C61.3034 38.5306 50.8033 40.9716 56.0098 47.9192" stroke="#FF7629" stroke-width="3" stroke-linecap="round" stroke-linejoin="round"/>
<path d="M46.9287 31.5732C50.4061 38.5306 39.9059 40.9716 45.1124 47.9192" stroke="#FF7629" stroke-width="3" stroke-linecap="round" stroke-linejoin="round"/>
<path d="M30.2023 60.6328C30.0428 60.6332 29.8861 60.6756 29.7481 60.7558C29.6102 60.836 29.4958 60.9511 29.4165 61.0896C29.3372 61.2281 29.2957 61.385 29.2964 61.5446C29.297 61.7042 29.3397 61.8608 29.4202 61.9986C33.9244 69.7115 43.5189 75.1626 56.5376 75.1626C69.5562 75.1626 79.1532 69.7115 83.6598 61.9986C83.7403 61.8606 83.783 61.7038 83.7836 61.544C83.7841 61.3842 83.7425 61.2271 83.6629 61.0886C83.5833 60.95 83.4686 60.8349 83.3303 60.7549C83.192 60.6749 83.035 60.6328 82.8752 60.6328H30.2023Z" stroke="#FF7629" stroke-width="3" stroke-linecap="round" stroke-linejoin="round"/>
<path d="M43.8241 82.4275C43.8241 78.4148 49.5173 75.1626 56.5376 75.1626C63.558 75.1626 69.2512 78.4148 69.2512 82.4275H43.8241Z" stroke="#FF7629" stroke-width="3" stroke-linecap="round" stroke-linejoin="round"/>
</svg>
