<svg width="114" height="114" viewBox="0 0 114 114" fill="none" xmlns="http://www.w3.org/2000/svg">
<circle cx="57" cy="57" r="57" fill="#FFEDE1"/>
<g clip-path="url(#clip0_1121:20713)">
<path d="M19.9203 71.1048C19.9203 67.2143 21.4658 63.4831 24.2168 60.7321C26.9678 57.9811 30.699 56.4355 34.5896 56.4355C38.4801 56.4355 42.2113 57.9811 44.9623 60.7321C47.7134 63.4831 49.2589 67.2143 49.2589 71.1048" stroke="#FF7629" stroke-width="2.5" stroke-linecap="round" stroke-linejoin="round"/>
<path d="M28.9461 71.105L41.7498 58.2998" stroke="#FF7629" stroke-width="2.5" stroke-linecap="round" stroke-linejoin="round"/>
<path d="M27.4251 58.2998L34.5883 65.4629" stroke="#FF7629" stroke-width="2.5" stroke-linecap="round" stroke-linejoin="round"/>
<path d="M37.9733 71.1052L42.8977 59.0146" stroke="#FF7629" stroke-width="2.5" stroke-linecap="round" stroke-linejoin="round"/>
<path d="M42.4883 45.1513V39.5093C42.4883 38.9107 42.2505 38.3367 41.8273 37.9134C41.404 37.4902 40.83 37.2524 40.2315 37.2524H28.9474C28.3489 37.2524 27.7748 37.4902 27.3516 37.9134C26.9284 38.3367 26.6906 38.9107 26.6906 39.5093V45.1513C26.6906 47.2462 27.5228 49.2553 29.0041 50.7366C30.4854 52.2179 32.4945 53.0501 34.5894 53.0501C36.6843 53.0501 38.6934 52.2179 40.1748 50.7366C41.6561 49.2553 42.4883 47.2462 42.4883 45.1513V45.1513Z" stroke="#FF7629" stroke-width="2.5" stroke-linecap="round" stroke-linejoin="round"/>
<path d="M26.6893 44.0229H42.4869" stroke="#FF7629" stroke-width="2.5" stroke-linecap="round" stroke-linejoin="round"/>
<path d="M35.7164 44.0229V37.2524" stroke="#FF7629" stroke-width="2.5" stroke-linecap="round" stroke-linejoin="round"/>
</g>
<path d="M92.8759 53.0562C92.8759 55.1511 92.0437 57.1602 90.5624 58.6415C89.0811 60.1228 87.072 60.955 84.977 60.955C82.8821 60.955 80.873 60.1228 79.3917 58.6415C77.9104 57.1602 77.0782 55.1511 77.0782 53.0562H92.8759Z" stroke="#FF7629" stroke-width="2.5" stroke-linecap="round" stroke-linejoin="round"/>
<path d="M92.8758 46.2852C93.4744 46.2852 94.0484 46.0474 94.4716 45.6242C94.8949 45.201 95.1327 44.6269 95.1327 44.0284C95.1329 43.2992 94.9566 42.5809 94.6186 41.9348C94.2807 41.2887 93.7913 40.7341 93.1922 40.3184C92.5932 39.9027 91.9024 39.6383 91.1788 39.5479C90.4553 39.4575 89.7207 39.5437 89.0378 39.7991C88.6682 39.036 88.0911 38.3924 87.3726 37.9421C86.6542 37.4918 85.8234 37.2529 84.9755 37.2529C84.1276 37.2529 83.2968 37.4918 82.5784 37.9421C81.8599 38.3924 81.2828 39.036 80.9132 39.7991C80.2305 39.5443 79.4961 39.4586 78.773 39.5493C78.0499 39.64 77.3596 39.9045 76.7609 40.3201C76.1623 40.7357 75.6731 41.2901 75.3354 41.9359C74.9976 42.5817 74.8212 43.2996 74.8213 44.0284C74.8213 44.6269 75.0591 45.201 75.4823 45.6242C75.9056 46.0474 76.4796 46.2852 77.0781 46.2852V53.0556H92.8758V46.2852Z" stroke="#FF7629" stroke-width="2.5" stroke-linecap="round" stroke-linejoin="round"/>
<path d="M96.5048 71.1106C95.1418 69.3541 93.3952 67.9325 91.3985 66.9546C89.4018 65.9767 87.2079 65.4683 84.9846 65.4683C82.7612 65.4683 80.5674 65.9767 78.5707 66.9546C76.574 67.9325 74.8273 69.3541 73.4643 71.1106" stroke="#FF7629" stroke-width="2.5" stroke-linecap="round" stroke-linejoin="round"/>
<path d="M84.9768 65.4683V71.1103" stroke="#FF7629" stroke-width="2.5" stroke-linecap="round" stroke-linejoin="round"/>
<path d="M77.0781 53.0562C77.0781 53.0562 77.0781 58.6982 72.5645 60.955" stroke="#FF7629" stroke-width="2.5" stroke-linecap="round" stroke-linejoin="round"/>
<path d="M92.8757 53.0562C92.8757 53.0562 92.8757 58.6982 97.3893 60.955" stroke="#FF7629" stroke-width="2.5" stroke-linecap="round" stroke-linejoin="round"/>
<path d="M66.5883 59.8213C66.5883 61.9162 65.7561 63.9253 64.2748 65.4066C62.7934 66.8879 60.7843 67.7201 58.6894 67.7201C56.5945 67.7201 54.5854 66.8879 53.1041 65.4066C51.6228 63.9253 50.7906 61.9162 50.7906 59.8213H66.5883Z" stroke="#FF7629" stroke-width="2.5" stroke-linecap="round" stroke-linejoin="round"/>
<path d="M66.5882 53.0503C67.1868 53.0503 67.7608 52.8126 68.184 52.3893C68.6073 51.9661 68.845 51.3921 68.845 50.7935C68.8453 50.0644 68.6689 49.346 68.331 48.6999C67.9931 48.0538 67.5036 47.4992 66.9046 47.0835C66.3056 46.6678 65.6147 46.4035 64.8912 46.313C64.1677 46.2226 63.4331 46.3088 62.7501 46.5642C62.3805 45.8011 61.8035 45.1575 61.085 44.7072C60.3665 44.2569 59.5358 44.0181 58.6879 44.0181C57.8399 44.0181 57.0092 44.2569 56.2907 44.7072C55.5723 45.1575 54.9952 45.8011 54.6256 46.5642C53.9428 46.3094 53.2085 46.2237 52.4854 46.3144C51.7623 46.4052 51.0719 46.6696 50.4733 47.0852C49.8746 47.5009 49.3855 48.0552 49.0478 48.701C48.71 49.3468 48.5336 50.0647 48.5337 50.7935C48.5337 51.3921 48.7715 51.9661 49.1947 52.3893C49.6179 52.8126 50.192 53.0503 50.7905 53.0503V59.8208H66.5882V53.0503Z" stroke="#FF7629" stroke-width="2.5" stroke-linecap="round" stroke-linejoin="round"/>
<path d="M70.2066 77.8757C68.8435 76.1192 67.0969 74.6977 65.1002 73.7197C63.1035 72.7418 60.9096 72.2334 58.6863 72.2334C56.463 72.2334 54.2691 72.7418 52.2724 73.7197C50.2757 74.6977 48.5291 76.1192 47.166 77.8757" stroke="#FF7629" stroke-width="2.5" stroke-linecap="round" stroke-linejoin="round"/>
<path d="M58.6862 72.2334V77.8754" stroke="#FF7629" stroke-width="2.5" stroke-linecap="round" stroke-linejoin="round"/>
<defs>
<clipPath id="clip0_1121:20713">
<rect width="36.109" height="36.109" fill="white" transform="translate(16.6104 36.1245)"/>
</clipPath>
</defs>
</svg>
