<svg width="32" height="32" viewBox="0 0 32 32" fill="none" xmlns="http://www.w3.org/2000/svg">
<path d="M18.2877 19.3131C18.2623 20.9257 17.6038 22.4638 16.4544 23.5952C15.305 24.7267 13.7567 25.3608 12.1439 25.3608C10.531 25.3608 8.98275 24.7267 7.83332 23.5952C6.68389 22.4638 6.02542 20.9257 6 19.3131C6 15.9196 8.74654 8.04919 12.1446 8.04919C15.5427 8.04919 18.2877 15.915 18.2877 19.3131Z" stroke="#FF7629" stroke-width="2" stroke-linecap="round" stroke-linejoin="round"/>
<path d="M17.0772 22.9751C18.0073 23.3445 19.0137 23.4801 20.0084 23.37C21.003 23.26 21.9555 22.9077 22.7823 22.344C23.6091 21.7802 24.2851 21.0223 24.7509 20.1367C25.2167 19.251 25.4582 18.2646 25.4542 17.2639C25.4542 13.8704 22.7076 6 19.3111 6C17.6891 6 16.2197 7.80203 15.1211 10.0496" stroke="#FF7629" stroke-width="2" stroke-linecap="round" stroke-linejoin="round"/>
</svg>
