<svg width="114" height="114" viewBox="0 0 114 114" fill="none" xmlns="http://www.w3.org/2000/svg">
<circle cx="57" cy="57" r="57" fill="#FFEDE1"/>
<path d="M42.0938 43.9426C42.0938 46.4162 43.0764 48.7886 44.8255 50.5377C46.5747 52.2868 48.947 53.2695 51.4206 53.2695C53.8943 53.2695 56.2666 52.2868 58.0157 50.5377C59.7648 48.7886 60.7475 46.4162 60.7475 43.9426C60.7475 41.469 59.7648 39.0966 58.0157 37.3475C56.2666 35.5984 53.8943 34.6157 51.4206 34.6157C48.947 34.6157 46.5747 35.5984 44.8255 37.3475C43.0764 39.0966 42.0938 41.469 42.0938 43.9426V43.9426Z" stroke="#FF7629" stroke-width="4" stroke-linecap="round" stroke-linejoin="round"/>
<path d="M42.3923 41.5923C33.0207 44.3763 28.5687 51.3776 29.0363 62.5964V81.2501C29.0363 82.2396 29.4293 83.1885 30.129 83.8882C30.8286 84.5878 31.7776 84.9809 32.767 84.9809H81.2667C82.2562 84.9809 83.2051 84.5878 83.9048 83.8882C84.6044 83.1885 84.9975 82.2396 84.9975 81.2501V64.5289C84.9995 63.932 84.8583 63.3433 84.5856 62.8123C84.313 62.2812 83.9169 61.8234 83.4306 61.4772L60.6332 45.4001" stroke="#FF7629" stroke-width="4" stroke-linecap="round" stroke-linejoin="round"/>
<path d="M84.4577 62.5964H29.0361" stroke="#FF7629" stroke-width="4" stroke-linecap="round" stroke-linejoin="round"/>
<path d="M84.4577 73.7886H29.0361" stroke="#FF7629" stroke-width="4" stroke-linecap="round" stroke-linejoin="round"/>
<path d="M53.1797 34.7823C54.2072 33.1646 55.5918 31.8041 57.2272 30.8051C58.8626 29.8061 60.7052 29.1952 62.6135 29.0195" stroke="#FF7629" stroke-width="4" stroke-linecap="round" stroke-linejoin="round"/>
</svg>
