<svg width="122" height="26" viewBox="0 0 122 26" fill="none" xmlns="http://www.w3.org/2000/svg">
<path d="M85.1161 0.418677H80.8786C80.8231 0.418442 80.768 0.42941 80.7167 0.450946C80.6653 0.472483 80.6187 0.504162 80.5794 0.544157C80.5401 0.584152 80.509 0.63167 80.4879 0.683971C80.4667 0.736271 80.4559 0.792318 80.4562 0.848879V10.2767H76.1566V0.848879C76.1568 0.792318 76.146 0.736271 76.1249 0.683971C76.1037 0.63167 76.0726 0.584152 76.0334 0.544157C75.9941 0.504162 75.9474 0.472483 75.8961 0.450946C75.8447 0.42941 75.7897 0.418442 75.7341 0.418677H71.5117C71.4562 0.41852 71.4013 0.429545 71.35 0.451117C71.2987 0.472689 71.2521 0.504381 71.2129 0.544367C71.1737 0.584354 71.1426 0.631846 71.1215 0.684108C71.1004 0.736369 71.0896 0.792368 71.0899 0.848879V25.1346C71.0899 25.3739 71.2773 25.5648 71.5117 25.5648H75.7498C75.8053 25.565 75.8603 25.554 75.9116 25.5324C75.9628 25.5108 76.0094 25.4791 76.0486 25.4391C76.0879 25.3991 76.1189 25.3517 76.14 25.2994C76.1611 25.2471 76.1719 25.1911 76.1716 25.1346V15.3723H80.4718V25.1346C80.4718 25.3739 80.6598 25.5648 80.8943 25.5648H85.1318C85.1873 25.5651 85.2424 25.5541 85.2937 25.5326C85.3451 25.511 85.3917 25.4793 85.431 25.4393C85.4703 25.3993 85.5014 25.3518 85.5225 25.2995C85.5437 25.2472 85.5544 25.1912 85.5542 25.1346V0.848879C85.5544 0.792318 85.5437 0.736271 85.5225 0.683971C85.5014 0.63167 85.4703 0.584152 85.431 0.544157C85.3917 0.504162 85.3451 0.472483 85.2937 0.450946C85.2424 0.42941 85.1873 0.418442 85.1318 0.418677H85.1161ZM49.1352 0.418677H44.8036C44.5849 0.418677 44.3975 0.57823 44.3812 0.801013V18.1273C44.4126 18.8441 44.2095 19.5455 43.7871 20.1022L43.8027 20.0862C43.4616 20.4688 42.9859 20.6986 42.4792 20.7255C41.9725 20.7524 41.4759 20.5742 41.0976 20.2298C41.0431 20.1904 40.9954 20.1418 40.9566 20.0862C40.5565 19.5294 40.3577 18.8488 40.3938 18.1598V0.801013C40.3935 0.748187 40.3826 0.695979 40.3617 0.647633C40.3408 0.599287 40.3104 0.555836 40.2723 0.519979C40.2342 0.484123 40.1892 0.456627 40.1403 0.4392C40.0913 0.421773 40.0393 0.414787 39.9876 0.418677H35.6398C35.5884 0.413991 35.5365 0.419795 35.4873 0.435751C35.4381 0.451706 35.3925 0.477493 35.3532 0.511603C35.3138 0.545714 35.2816 0.587465 35.2583 0.634417C35.235 0.681369 35.2211 0.73258 35.2174 0.785058V18.1757V18.1279C35.077 20.2139 35.7338 22.268 37.0469 23.8606L37.0313 23.8446C37.7249 24.5547 38.5554 25.111 39.4704 25.4783C40.3854 25.8457 41.3652 26.0162 42.3481 25.9791H42.4107C43.3936 26.0162 44.3734 25.8457 45.2884 25.4783C46.2034 25.111 47.0338 24.5547 47.7275 23.8446L47.7118 23.8606C49.0275 22.263 49.6833 20.2079 49.5413 18.1279V0.801013C49.5329 0.696972 49.4864 0.599947 49.4111 0.529143C49.3358 0.458338 49.2371 0.418915 49.1346 0.418677H49.1352ZM7.24327 0.00502085H7.21193C6.22915 -0.0322253 5.24943 0.138077 4.33442 0.505213C3.4194 0.87235 2.5889 1.42837 1.89516 2.1383L1.94216 2.07507C0.5977 3.65497 -0.0919255 5.70476 0.0186463 7.79239V18.1911V18.1438C-0.121773 20.2298 0.535064 22.2839 1.84816 23.8765L1.83249 23.8606C2.52613 24.5707 3.35659 25.1269 4.27161 25.4943C5.18663 25.8616 6.1664 26.0321 7.14927 25.995H7.2276C8.21047 26.0321 9.19024 25.8616 10.1053 25.4943C11.0203 25.1269 11.8507 24.5707 12.5444 23.8606C13.86 22.263 14.5159 20.2079 14.3739 18.1279V12.4738C14.3683 12.3588 14.3199 12.2503 14.2385 12.1704C14.1571 12.0904 14.0489 12.0451 13.9358 12.0436H7.68077C7.56612 12.0447 7.45603 12.0895 7.37217 12.1691C7.2883 12.2487 7.23673 12.3574 7.2276 12.4738V16.7096C7.24327 16.9643 7.43069 17.1558 7.68077 17.1558H9.4012V18.1273C9.43654 18.8559 9.22696 19.575 8.80703 20.166L8.82269 20.1495C8.44728 20.6275 7.86877 20.8982 7.2746 20.8503H7.24327C6.6491 20.8976 6.07059 20.6595 5.69518 20.1814C5.25758 19.6043 5.03586 18.8875 5.06967 18.1592V7.85562V7.87157C5.03948 7.12408 5.27242 6.39018 5.72651 5.80211C6.10193 5.32404 6.68043 5.0534 7.2746 5.10126H7.30593C7.90011 5.05399 8.47803 5.29272 8.85403 5.7702L8.88536 5.80211C9.28015 6.40784 9.46196 7.13183 9.4012 7.85621V8.81176C9.41686 9.03513 9.60428 9.19409 9.82303 9.19409H14.0611C14.2799 9.19409 14.4673 9.03454 14.483 8.81176V7.80893V7.84025C14.5926 5.75425 13.9045 3.71551 12.5444 2.13949H12.56C11.8642 1.43217 11.0333 0.877743 10.1187 0.510507C9.20412 0.14327 8.22526 -0.0289729 7.24269 0.00442992L7.24327 0.00502085ZM65.4603 12.5861L65.4917 12.5536C66.1297 11.9292 66.6373 11.18 66.9839 10.3508C67.3305 9.52167 67.509 8.62973 67.5086 7.72857V7.79239C67.5405 5.9338 66.8942 4.12925 65.6948 2.72806V2.74401C65.0387 1.99797 64.2329 1.40424 63.3319 1.00305C62.4309 0.60185 61.4558 0.40256 60.4726 0.418677H53.7162C53.6607 0.418442 53.6056 0.42941 53.5543 0.450946C53.5029 0.472483 53.4563 0.504162 53.417 0.544157C53.3777 0.584152 53.3466 0.63167 53.3255 0.683971C53.3043 0.736271 53.2935 0.792318 53.2938 0.848879V25.1346C53.2938 25.3739 53.4818 25.5648 53.7162 25.5648H60.8166C62.9589 25.5967 65.0072 24.6571 66.3835 22.9848L66.3678 23.0007C67.4758 21.5071 68.0296 19.6627 67.9316 17.7934V17.8572C67.9316 15.8025 67.0247 13.8755 65.4609 12.5861H65.4603ZM58.3454 5.53028H60.4876H60.472C60.7348 5.51189 60.9984 5.55229 61.2443 5.64866C61.4902 5.74503 61.7124 5.89502 61.8953 6.08813L61.9261 6.12004C62.2992 6.63332 62.4771 7.2669 62.4268 7.90349V7.87157C62.4895 8.54051 62.2858 9.22541 61.8953 9.78266V9.76671C61.7222 9.97108 61.5051 10.132 61.261 10.237C61.0168 10.3419 60.7522 10.3881 60.4876 10.3718H58.3454V5.53087V5.53028ZM62.3172 19.8635L62.3328 19.8475C62.1412 20.0794 61.8978 20.2612 61.623 20.3775C61.3482 20.4939 61.05 20.5416 60.7534 20.5164H58.3454V15.2612H60.7847H60.7691C61.0657 15.2361 61.3638 15.2838 61.6386 15.4001C61.9134 15.5165 62.1569 15.6983 62.3485 15.9302L62.3328 15.9142C62.7508 16.4574 62.9618 17.1361 62.927 17.8253V17.8413C62.9583 18.5575 62.7239 19.2583 62.3015 19.8315L62.3172 19.8635V19.8635ZM29.1196 14.7353L29.1353 14.7199C29.5728 14.4168 29.9639 14.051 30.3236 13.6527L30.308 13.6846C31.6024 12.1579 32.2837 10.1901 32.2158 8.17413V8.12686C32.2496 6.13593 31.5397 4.20624 30.2296 2.72806L30.308 2.8232C29.6644 2.08279 28.8787 1.48458 27.9993 1.06553C27.1198 0.646476 26.1654 0.415467 25.1949 0.386766H18.0799C18.0244 0.386532 17.9693 0.397499 17.918 0.419036C17.8666 0.440572 17.82 0.472252 17.7807 0.512247C17.7414 0.552241 17.7103 0.59976 17.6892 0.65206C17.668 0.70436 17.6573 0.760408 17.6575 0.816968V25.1346C17.6575 25.3739 17.8449 25.5648 18.0799 25.5648H22.3174C22.373 25.5651 22.428 25.5541 22.4794 25.5326C22.5307 25.511 22.5774 25.4793 22.6166 25.4393C22.6559 25.3993 22.687 25.3518 22.7082 25.2995C22.7293 25.2472 22.7401 25.1912 22.7399 25.1346V16.1376H24.3036L26.9774 25.3107C27.0238 25.4856 27.1961 25.6133 27.3835 25.6133H31.8874C31.9541 25.6127 32.0198 25.5966 32.0794 25.5662C32.1391 25.5358 32.1911 25.4918 32.2315 25.4378C32.2622 25.379 32.2783 25.3135 32.2783 25.2469C32.2783 25.1803 32.2622 25.1148 32.2315 25.056L29.1196 14.7359V14.7353ZM26.5085 10.2607C26.2935 10.495 26.0312 10.6789 25.7395 10.7998C25.4479 10.9207 25.134 10.9757 24.8194 10.961H22.7399V5.53028H24.8038C25.1183 5.51579 25.4322 5.57101 25.7237 5.69211C26.0152 5.81322 26.2775 5.99733 26.4923 6.23172V6.21577C26.9327 6.755 27.1612 7.44139 27.1335 8.14222V8.17413C27.1805 8.93881 26.9617 9.67157 26.4923 10.2601H26.508L26.5085 10.2607ZM119.55 12.5855L119.58 12.5536C120.218 11.9293 120.726 11.18 121.073 10.3509C121.42 9.52174 121.598 8.62977 121.598 7.72857V7.82371C121.663 5.92142 121.014 4.06529 119.784 2.63233L119.815 2.6796C119.159 1.93359 118.353 1.33993 117.452 0.938832C116.551 0.537737 115.576 0.33858 114.593 0.354856H107.806C107.75 0.354621 107.695 0.365588 107.644 0.387125C107.593 0.408662 107.546 0.440341 107.507 0.480336C107.468 0.520331 107.436 0.567849 107.415 0.620149C107.394 0.67245 107.383 0.728497 107.384 0.785058V25.1346C107.384 25.3739 107.571 25.5648 107.806 25.5648H114.873C117.016 25.5967 119.064 24.6571 120.441 22.9848L120.425 23.0007C121.533 21.5071 122.087 19.6627 121.989 17.7934V17.8253C121.989 15.7866 121.082 13.8436 119.518 12.5695L119.55 12.5855V12.5855ZM112.435 5.53087H114.577H114.561C114.824 5.51249 115.087 5.55284 115.333 5.64911C115.579 5.74537 115.801 5.89521 115.984 6.08813L116.015 6.12004C116.388 6.6334 116.566 7.26697 116.515 7.90349V7.87157C116.578 8.54051 116.375 9.22541 115.984 9.78266V9.76671C115.811 9.971 115.594 10.1319 115.35 10.2368C115.106 10.3418 114.841 10.388 114.577 10.3718H112.435V5.53087ZM116.406 19.8635L116.422 19.8475C116.23 20.0794 115.987 20.2612 115.712 20.3775C115.437 20.4939 115.139 20.5416 114.843 20.5164H112.435V15.2612H114.874H114.858C115.155 15.2361 115.453 15.2838 115.728 15.4001C116.003 15.5165 116.246 15.6983 116.438 15.9302L116.422 15.9142C116.84 16.4574 117.051 17.1361 117.016 17.8253V17.8413C117.048 18.5575 116.813 19.2583 116.391 19.8315L116.406 19.8635ZM103.224 0.418677H98.8609C98.8095 0.414074 98.7577 0.41994 98.7086 0.435933C98.6594 0.451927 98.6139 0.477727 98.5746 0.51183C98.5354 0.545933 98.5032 0.587656 98.4799 0.634566C98.4566 0.681476 98.4428 0.732634 98.4391 0.785058V18.1279C98.4704 18.8281 98.2824 19.513 97.8763 20.0703C97.5352 20.4528 97.0595 20.6826 96.5528 20.7095C96.0461 20.7364 95.5495 20.5583 95.1712 20.2139C95.1166 20.1744 95.0689 20.1259 95.0302 20.0703C94.6301 19.5134 94.4313 18.8329 94.4673 18.1438V0.801013C94.4517 0.57823 94.2642 0.418677 94.0449 0.418677H89.6977C89.479 0.418677 89.2916 0.57823 89.2759 0.801013V18.1757C89.1349 20.2139 89.7923 22.268 91.1054 23.8606L91.1518 23.9084C94.2016 26.6953 98.8459 26.6634 101.848 23.8133L101.785 23.8606C103.101 22.263 103.757 20.2079 103.615 18.1279V0.801013C103.599 0.594185 103.427 0.418677 103.224 0.418677V0.418677Z" fill="#F2333D"/>
</svg>
