<svg width="24" height="24" viewBox="0 0 24 24" fill="none" xmlns="http://www.w3.org/2000/svg">
<path d="M14.9266 22.0802L14.9383 22.0871C15.9734 22.7461 17.2024 23.0324 18.4222 22.8986C19.642 22.7648 20.7797 22.219 21.6474 21.3513L22.4017 20.5969C22.7386 20.2596 22.9279 19.8023 22.9279 19.3256C22.9279 18.8488 22.7386 18.3915 22.4017 18.0542L19.2236 14.878C18.8863 14.5411 18.429 14.3519 17.9522 14.3519C17.4755 14.3519 17.0182 14.5411 16.6809 14.878V14.878C16.5141 15.0451 16.316 15.1776 16.0979 15.268C15.8798 15.3584 15.6461 15.4049 15.41 15.4049C15.1739 15.4049 14.9402 15.3584 14.7221 15.268C14.5041 15.1776 14.306 15.0451 14.1391 14.878L9.05373 9.79164C8.71683 9.45431 8.52759 8.99705 8.52759 8.52029C8.52759 8.04353 8.71683 7.58627 9.05373 7.24894V7.24894C9.22076 7.08212 9.35326 6.88401 9.44367 6.66595C9.53407 6.44788 9.5806 6.21413 9.5806 5.97807C9.5806 5.74201 9.53407 5.50826 9.44367 5.2902C9.35326 5.07213 9.22076 4.87402 9.05373 4.70721L5.87657 1.52614C5.53924 1.18924 5.08198 1 4.60522 1C4.12846 1 3.6712 1.18924 3.33387 1.52614L2.57953 2.28048C1.71198 3.14823 1.1662 4.28583 1.03225 5.50555C0.898297 6.72527 1.18419 7.9542 1.84274 8.98955L1.85054 9.00125C5.33315 14.1567 9.77198 18.5965 14.9266 22.0802V22.0802Z" stroke="#FF7629" stroke-width="1.5" stroke-linecap="round" stroke-linejoin="round"/>
</svg>
