<svg width="22" height="17" viewBox="0 0 22 17" fill="none" xmlns="http://www.w3.org/2000/svg">
<path d="M21.2457 3.53076V13.6536C21.2457 14.3248 20.979 14.9685 20.5044 15.4431C20.0298 15.9177 19.3861 16.1843 18.715 16.1843H3.53071C2.85952 16.1843 2.21583 15.9177 1.74123 15.4431C1.26663 14.9685 1 14.3248 1 13.6536V3.53076" stroke="#FF7629" stroke-width="1.5" stroke-linecap="round" stroke-linejoin="round"/>
<path d="M21.2457 3.53071C21.2457 2.85952 20.979 2.21583 20.5044 1.74123C20.0298 1.26663 19.3861 1 18.715 1H3.53071C2.85952 1 2.21583 1.26663 1.74123 1.74123C1.26663 2.21583 1 2.85952 1 3.53071L9.78156 9.0156C10.1838 9.26698 10.6485 9.40028 11.1228 9.40028C11.5971 9.40028 12.0619 9.26698 12.4641 9.0156L21.2457 3.53071Z" stroke="#FF7629" stroke-width="1.5" stroke-linecap="round" stroke-linejoin="round"/>
</svg>
