<svg width="114" height="115" viewBox="0 0 114 115" fill="none" xmlns="http://www.w3.org/2000/svg">
<circle cx="57" cy="57.7876" r="57" fill="#FFEDE1"/>
<path d="M57.0002 72.8871C69.1004 72.8871 78.9096 63.0779 78.9096 50.9777C78.9096 38.8775 69.1004 29.0684 57.0002 29.0684C44.9 29.0684 35.0908 38.8775 35.0908 50.9777C35.0908 63.0779 44.9 72.8871 57.0002 72.8871Z" stroke="#FF7629" stroke-width="3" stroke-linecap="round" stroke-linejoin="round"/>
<path d="M39.2303 63.7935L30.5 78.6867L40.5938 76.7612L43.8441 86.507L52.1465 72.3458" stroke="#FF7629" stroke-width="3" stroke-linecap="round" stroke-linejoin="round"/>
<path d="M74.7697 63.7935L83.5 78.6867L73.4062 76.7612L70.1559 86.507L61.8535 72.3458" stroke="#FF7629" stroke-width="3" stroke-linecap="round" stroke-linejoin="round"/>
<path d="M55.8814 40.6914C55.9858 40.4842 56.1456 40.3101 56.3431 40.1885C56.5407 40.0668 56.7681 40.0024 57 40.0024C57.232 40.0024 57.4594 40.0668 57.6569 40.1885C57.8545 40.3101 58.0143 40.4842 58.1187 40.6914L60.7195 45.9341C60.8088 46.1143 60.9407 46.2699 61.1038 46.3876C61.2668 46.5052 61.456 46.5814 61.6551 46.6095L67.4908 47.4523C67.7184 47.4852 67.9325 47.5804 68.1095 47.7273C68.2864 47.8742 68.4193 48.0672 68.4934 48.2849C68.5657 48.5022 68.5747 48.7355 68.5195 48.9578C68.4643 49.18 68.3471 49.382 68.1816 49.5402L63.9595 53.6488C63.8171 53.7865 63.7103 53.9568 63.6483 54.1449C63.5864 54.3331 63.5711 54.5335 63.6038 54.7288L64.6039 60.5206C64.6423 60.7473 64.6157 60.9801 64.5272 61.1922C64.4387 61.4043 64.2919 61.5871 64.1038 61.7192C63.9151 61.8547 63.6924 61.9348 63.4607 61.9508C63.2289 61.9667 62.9973 61.9178 62.7918 61.8094L57.5826 59.0927C57.4032 58.9974 57.2032 58.9476 57 58.9476C56.7969 58.9476 56.5969 58.9974 56.4175 59.0927L51.2211 61.8094C51.0156 61.9178 50.7841 61.9667 50.5523 61.9508C50.3206 61.9348 50.0979 61.8547 49.9091 61.7192C49.7211 61.5871 49.5743 61.4043 49.4858 61.1922C49.3973 60.9801 49.3707 60.7473 49.4091 60.5206L50.4092 54.7288C50.4419 54.5335 50.4266 54.3331 50.3646 54.1449C50.3027 53.9568 50.1959 53.7865 50.0535 53.6488L45.8185 49.5402C45.653 49.382 45.5358 49.18 45.4806 48.9578C45.4254 48.7355 45.4344 48.5022 45.5066 48.2849C45.5808 48.0672 45.7137 47.8742 45.8906 47.7273C46.0676 47.5804 46.2817 47.4852 46.5093 47.4523L52.3449 46.6095C52.544 46.5814 52.7333 46.5052 52.8963 46.3876C53.0594 46.2699 53.1913 46.1143 53.2806 45.9341L55.8814 40.6914Z" stroke="#FF7629" stroke-width="3" stroke-linecap="round" stroke-linejoin="round"/>
</svg>
