<svg width="114" height="114" viewBox="0 0 114 114" fill="none" xmlns="http://www.w3.org/2000/svg">
<circle cx="57" cy="57" r="57" fill="#FFEDE1"/>
<path d="M57.0204 79.932L34.2166 56.6339C32.218 54.6965 30.8923 52.17 30.4338 49.4245C29.9753 46.6789 30.408 43.8588 31.6687 41.377V41.377C32.6551 39.4949 34.0676 37.8692 35.7935 36.6295C37.5195 35.3899 39.5112 34.5706 41.6098 34.237C43.7084 33.9034 45.856 34.0647 47.8813 34.708C49.9066 35.3514 51.7535 36.4589 53.275 37.9425L57 41.5911L60.725 37.9425C62.2465 36.4589 64.0935 35.3514 66.1187 34.708C68.144 34.0647 70.2915 33.9034 72.3902 34.237C74.4888 34.5706 76.4805 35.3899 78.2065 36.6295C79.9324 37.8692 81.3449 39.4949 82.3313 41.377C83.5919 43.8588 84.0247 46.6789 83.5662 49.4245C83.1077 52.17 81.782 54.6965 79.7834 56.6339L57.0204 79.932Z" stroke="#FF7629" stroke-width="3" stroke-linecap="round" stroke-linejoin="round"/>
</svg>
