<svg width="102" height="38" viewBox="0 0 102 38" fill="none" xmlns="http://www.w3.org/2000/svg">
<path fill-rule="evenodd" clip-rule="evenodd" d="M100.629 3.64485H99.9151C98.9519 3.64696 97.5463 3.7121 96.4953 4.24651C95.4528 4.77411 94.9474 5.6915 94.9508 7.04628L94.955 8.30145L99.6202 8.28884L99.2298 11.6239L94.9627 11.6365L94.9993 24.8345C95.0121 29.5439 92.1958 32.924 90.9837 34.158L90.1884 34.9647L90.1415 34.9009C88.8629 35.9178 86.0636 37.71 82.2125 37.7211C79.963 37.7211 77.6913 37.1211 75.06 36.425C71.5225 35.4906 67.5137 34.4294 62.2859 34.4294H62.1658C61.1756 34.4357 60.186 34.4742 59.1986 34.5477L59.3502 36.4616L55.164 33.0099L58.7766 29.2069L58.9231 31.0646C60.0321 30.987 61.1434 30.9445 62.2551 30.9371H62.3965C69.1672 30.9371 73.6661 32.2493 76.9513 33.2075C79.0005 33.8066 80.6081 34.278 82.1024 34.278C85.8444 34.2675 88.601 31.8348 88.7161 31.7319C91.1923 28.9185 91.5955 26.848 91.5827 23.0066L91.5512 11.645L85.812 11.6619L85.8444 23.746C85.8508 25.8369 84.143 27.3857 82.9164 27.5737L82.2132 27.687L80.8886 25.0668L81.5543 24.5774C82.4212 23.9366 82.4374 23.9247 82.4314 21.9172L82.4016 11.6687L78.4942 11.6793L78.8837 8.34597L82.3939 8.33542L82.3896 7.04873C82.3833 4.68722 83.0673 3.00308 84.4832 1.89849C85.8478 0.833897 87.932 0.312259 90.8557 0.304607L92.2067 0.300361L91.1174 3.67458H90.4014C89.474 3.67668 88.128 3.74183 87.1725 4.27623C86.2433 4.79704 85.7933 5.71097 85.7984 7.07427L85.8027 8.32782L91.5436 8.31303L91.5393 7.02467C91.5266 2.31358 94.1681 0.297529 100.369 0.278809H101.719L100.629 3.64485ZM77.5797 27.5986H76.925C76.03 27.5986 75.1222 26.7978 74.546 25.8438C72.6784 27.3067 70.1842 27.5509 68.7659 27.5551L68.5101 27.5569C66.2964 27.5569 60.4098 27.5551 60.3902 20.2L60.3578 8.32532L63.8663 8.31689L63.8986 20.2554C63.9072 22.1029 64.4868 23.9904 68.7514 23.9904C72.0945 23.982 73.6305 22.6306 73.622 19.7346L73.5922 8.28967L77.0989 8.28118L77.1373 21.96C77.1415 23.7199 77.4527 24.0714 78.0988 24.6398L78.6247 25.1028L77.5797 27.5986ZM51.2567 16.6404L44.6685 16.6572L44.6855 23.7204C44.694 25.8249 42.6363 27.5652 42.4028 27.7567L41.3748 28.5924L39.9581 25.1535L40.5318 24.6965C40.5445 24.6839 41.1779 24.1323 41.1762 23.4668L41.1166 1.64997L51.2388 1.62192C56.6158 1.62192 59.3469 4.16301 59.3579 9.17279C59.3707 13.9749 56.4939 16.6258 51.2559 16.6394L51.2567 16.6404ZM52.231 5.15195V4.51877L52.2139 5.15195L44.6352 5.17305L44.6582 13.1613L51.2166 13.1424C52.8191 13.1381 54.0202 12.8122 54.7873 12.1714C55.5306 11.551 55.8903 10.6285 55.8861 9.34778C55.8775 6.64246 54.5802 5.1524 52.2318 5.1524L52.231 5.15195ZM30.2118 27.7568L29.6569 27.7577C27.1921 27.7581 24.8257 26.7925 23.0669 25.0686C21.2999 23.3164 20.3265 20.9736 20.318 18.4691L20.3162 17.6496C20.3077 15.1451 21.2692 12.7981 23.0209 11.0425C24.811 9.28432 27.1559 8.31508 29.6313 8.30827L30.1589 8.30653C32.6855 8.30653 35.0287 9.26478 36.7821 11.0042C38.5531 12.7424 39.5527 15.1165 39.5575 17.596L39.5617 18.4155C39.566 20.9012 38.5943 23.2465 36.8238 25.0242C35.0713 26.779 32.7238 27.7492 30.2126 27.7568H30.2118ZM36.049 17.6045C36.0405 14.4082 33.4091 11.8067 30.1845 11.8067V11.1702L30.1675 11.8067L29.6398 11.8075C26.4246 11.816 23.8162 14.432 23.8256 17.6402L23.8299 18.4581C23.8384 21.6578 26.4518 24.2584 29.6569 24.2584H30.2049C31.7588 24.2586 33.2485 23.6402 34.3442 22.5403C35.4434 21.4531 36.0589 19.9705 36.0524 18.4257L36.049 17.6045ZM18.0045 14.4652L18.0378 26.6429C18.0463 29.4282 17.0447 31.6774 15.143 33.1462C13.5882 34.3486 11.4282 35.0133 9.06367 35.0201H9.02535C5.93284 35.0201 2.94261 33.9725 1.58473 32.4135L0.925833 31.6595L3.43699 29.5823L4.06352 30.0954C5.27648 31.0868 6.97448 31.6561 8.72447 31.6561C11.5902 31.6477 14.6384 30.0792 14.6299 26.6523L14.6256 26.0353C13.4911 26.8803 11.8212 27.6062 9.42256 27.6139C3.61771 27.6139 0.303591 24.4541 0.286531 18.9457L0.282273 16.7816C0.265234 11.0408 4.90995 8.41205 9.23163 8.3993C11.5825 8.3993 13.642 9.09968 15.0689 10.3498C15.5965 9.24095 16.5248 8.17722 17.7343 7.86661L18.7717 7.59853L19.3266 10.9608L18.8433 11.3174C18.1869 11.7965 17.9994 12.5028 18.0037 14.4652H18.0045ZM14.5353 16.8378C14.5289 14.1291 12.3114 11.9241 9.5939 11.9241V11.2902L9.57898 11.9241L8.88684 11.9262C6.08329 11.9326 3.71703 14.1959 3.72555 16.868L3.73192 19.2303C3.74044 21.8778 6.11012 24.1142 8.90686 24.1142L9.61008 24.112C10.9262 24.1139 12.1882 23.5895 13.1143 22.656C14.0332 21.742 14.5472 20.4985 14.5412 19.2035L14.5353 16.8378Z" fill="#2CBCE9"/>
</svg>
