<svg width="173" height="33" viewBox="0 0 173 33" fill="none" xmlns="http://www.w3.org/2000/svg">
<path d="M103.692 12.0527H100.776V27.3948H103.692V12.0527Z" fill="#363636"/>
<path d="M79.1357 27.3946V5.58496H86.5737C93.3388 5.58496 96.9641 10.3981 96.9641 16.4896C96.9641 22.6942 93.1893 27.3944 86.5362 27.3944H79.1357V27.3946ZM86.0129 24.8C91.2455 24.8 94.0486 22.0549 94.0486 16.4896C94.0486 10.8117 91.0587 8.17936 86.1251 8.17936H82.051V24.7998H86.0129V24.8Z" fill="#363636"/>
<path d="M100.369 6.9387C100.369 5.88603 101.191 5.05835 102.238 5.05835C103.284 5.05835 104.107 5.8858 104.107 6.9387C104.107 7.99159 103.285 8.81905 102.238 8.81905C101.191 8.81882 100.369 7.95387 100.369 6.9387Z" fill="#363636"/>
<path d="M74.0911 12.0527H71.1758V27.3948H74.0911V12.0527Z" fill="#363636"/>
<path d="M49.4238 27.3946V5.58496H56.8616C63.6267 5.58496 67.2522 10.3981 67.2522 16.4896C67.2522 22.6942 63.4771 27.3944 56.8243 27.3944H49.4238V27.3946ZM56.3009 24.8C61.5334 24.8 64.3366 22.0549 64.3366 16.4896C64.3366 10.8117 61.3466 8.17936 56.413 8.17936H52.3391V24.7998H56.3009V24.8Z" fill="#363636"/>
<path d="M70.7666 6.9387C70.7666 5.88603 71.5888 5.05835 72.6354 5.05835C73.6819 5.05835 74.5043 5.8858 74.5043 6.9387C74.5043 7.99159 73.6821 8.81905 72.6354 8.81905C71.6261 8.81882 70.7666 7.95387 70.7666 6.9387Z" fill="#363636"/>
<path d="M132.436 11.6008C127.54 11.6008 124.849 14.4209 124.849 19.4974C124.849 24.6112 127.54 27.3938 132.436 27.3938C137.332 27.3938 140.023 24.5735 140.023 19.4974C139.986 14.3834 137.295 11.6008 132.436 11.6008ZM132.436 25.5891C128.549 25.5891 126.643 23.5961 126.643 19.4597C126.643 15.3233 128.549 13.3303 132.436 13.3303C136.323 13.3303 138.229 15.3233 138.229 19.4597C138.229 23.5961 136.323 25.5891 132.436 25.5891Z" fill="#363636"/>
<path d="M149.107 11.6008C144.211 11.6008 141.52 14.4209 141.52 19.4974C141.52 24.6112 144.211 27.3938 149.107 27.3938C154.003 27.3938 156.694 24.5735 156.694 19.4974C156.656 14.3834 153.965 11.6008 149.107 11.6008ZM149.107 25.5891C145.22 25.5891 143.314 23.5961 143.314 19.4597C143.314 15.3233 145.22 13.3303 149.107 13.3303C152.994 13.3303 154.9 15.3233 154.9 19.4597C154.9 23.5961 152.994 25.5891 149.107 25.5891Z" fill="#363636"/>
<path d="M113.861 6.82499H125.223V5.13281H112.029V27.3936H113.861V17.5042H123.279V15.7743H113.861V6.82499Z" fill="#363636"/>
<path d="M170.968 5.434V13.8197C169.735 12.3531 167.866 11.5634 165.399 11.5634C160.727 11.5634 158.148 14.3837 158.148 19.4977C158.148 24.6115 160.727 27.4318 165.399 27.4318C167.829 27.4318 169.697 26.6421 170.931 25.2133L171.08 27.1684H172.687V5.05811L170.968 5.434ZM165.437 25.5892C161.774 25.5892 159.98 23.5961 159.98 19.4598C159.98 15.3234 161.774 13.3304 165.437 13.3304C169.099 13.3304 170.893 15.3234 170.893 19.4598C170.893 23.5961 169.099 25.5892 165.437 25.5892Z" fill="#363636"/>
<path d="M20.4226 25.1757C27.1127 24.9501 32.4576 19.6104 32.5322 12.9174V7.20177H39.8952V13.5566C39.7456 23.8597 30.8502 32.0194 20.4224 32.2451C9.80797 32.1699 0.838014 23.9726 0.688477 13.5566V2.16296C0.688477 0.99712 1.43594 0.245117 2.55724 0.245117H32.4949V7.20177H9.02324C8.42509 7.20177 8.05148 7.57788 8.05148 8.17921V12.8044C8.12625 19.5731 13.5457 25.1005 20.4226 25.1757Z" fill="#F47C46"/>
</svg>
