<svg width="121" height="47" viewBox="0 0 121 47" fill="none" xmlns="http://www.w3.org/2000/svg">
<path fill-rule="evenodd" clip-rule="evenodd" d="M6.37695 10.4839V38.4392H114.624V10.4839H6.37695Z" fill="white"/>
<path fill-rule="evenodd" clip-rule="evenodd" d="M28.2459 21.7903C26.6924 21.7903 25.5782 22.8494 25.2773 24.4616H30.6581C30.5862 22.7576 29.5452 21.7903 28.2459 21.7903Z" fill="#C90117"/>
<path fill-rule="evenodd" clip-rule="evenodd" d="M37.5931 28.1221C37.5931 29.0206 38.2433 29.8023 39.3796 29.8023C41.0721 29.8023 42.233 28.0302 42.233 26.5092V26.095H41.7209C40.5853 26.095 37.5928 26.2572 37.5928 28.1221" fill="#C90117"/>
<path fill-rule="evenodd" clip-rule="evenodd" d="M82.2231 21.7903C80.6696 21.7903 79.5554 22.8494 79.2559 24.4616H84.6353C84.5634 22.7576 83.5211 21.7903 82.2231 21.7903Z" fill="#C90117"/>
<path fill-rule="evenodd" clip-rule="evenodd" d="M112.56 0.949707C110.253 0.949707 90.2731 3.2781 60.4999 3.2781C30.7254 3.2781 10.7451 0.949707 8.44143 0.949707C4.69612 0.949707 0.952148 3.27811 0.952148 7.24048V39.758C0.952148 43.7217 4.69612 46.0501 8.44143 46.0501C10.7451 46.0501 30.7254 43.7217 60.4999 43.7217C90.2731 43.7217 110.253 46.0501 112.56 46.0501C116.302 46.0501 120.049 43.7217 120.049 39.758V7.24048C120.049 3.27811 116.302 0.949707 112.56 0.949707ZM15.9974 31.8981C13.8416 31.8981 11.2431 30.977 11.2431 29.0649V27.7315H13.6312V28.4445C13.6312 29.2968 14.7914 29.7104 16.0448 29.7104C17.2508 29.7104 18.1321 29.2717 18.1321 28.4445C18.1321 27.4303 16.9732 27.1534 15.3957 26.5792C13.6552 25.9575 11.661 25.1739 11.661 22.9657C11.661 20.5006 14.1192 19.6251 16.2544 19.6251C17.9704 19.6251 20.4989 20.2911 20.4989 22.042V23.5161H18.0615V22.8244C18.0615 22.2039 17.3193 21.8128 16.2764 21.8128C15.3025 21.8128 14.4665 22.1802 14.4665 22.9413C14.4665 23.9535 15.6726 24.3467 16.9958 24.7596C18.805 25.3352 20.9377 26.0732 20.9377 28.35C20.9377 30.6989 18.7118 31.8981 15.9974 31.8981V31.8981ZM33.4636 26.1418H25.2074C25.393 28.3744 27.0172 29.5485 28.8496 29.5485C30.7959 29.5485 32.3049 28.2846 32.3049 28.2846L33.395 30.2634C33.395 30.2634 31.6079 31.8981 28.6646 31.8981C24.7908 31.8981 22.3321 29.1124 22.3321 25.75C22.3321 22.1365 24.8128 19.6251 28.3152 19.6251C31.7011 19.6251 33.5322 22.0903 33.5322 25.1752C33.5322 25.497 33.4603 26.1418 33.4603 26.1418H33.4636ZM38.6839 31.8981C36.6659 31.8981 34.7649 30.724 34.7649 28.3288C34.7649 24.7391 39.542 24.3909 41.4669 24.3909H42.2104V23.9773C42.2104 22.4114 41.2359 21.859 39.9606 21.859C38.1721 21.859 36.6199 22.9869 36.6199 22.9869L35.5523 21.0542C35.5523 21.0542 37.3614 19.6251 40.1916 19.6251C43.3466 19.6251 45.0159 21.2373 45.0159 24.2317V29.0219C45.0159 29.3655 45.2014 29.5267 45.5273 29.5267H46.617V31.6212H43.9026C42.835 31.6212 42.4183 31.0695 42.4183 30.3784V30.2397C42.4183 29.8492 42.4903 29.5948 42.4903 29.5948H42.4399C42.4399 29.5948 41.4436 31.8981 38.6833 31.8981H38.6839ZM62.9687 22.1596C60.9286 22.1596 59.8842 24.2072 59.8842 26.3955V29.5261H61.6247V31.6192H57.078V24.6222C57.078 23.3086 56.868 22.1596 55.4087 22.1596C53.2741 22.1596 52.2531 24.3902 52.2531 26.533V29.5261H53.9929V31.6192H47.7076V29.5261H49.4475V22.4807C49.4475 22.1596 49.262 21.9964 48.9361 21.9964H47.5922V19.9019H50.6061C51.6278 19.9019 52.1376 20.3624 52.1376 21.2155V21.7421C52.1376 22.0189 52.0945 22.2958 52.0945 22.2958H52.1376C52.7404 21.0536 54.2496 19.6251 56.1959 19.6251C57.8898 19.6251 59.0733 20.4087 59.5133 22.2046H59.5564C60.2074 20.823 61.8068 19.6251 63.6865 19.6251C66.1219 19.6251 67.4905 21.0298 67.4905 24.0923V29.5261H69.2283V31.6192H64.6816V24.6222C64.6816 23.2406 64.4277 22.1596 62.9657 22.1596H62.9687ZM75.4041 31.6437C75.4041 31.6437 74.9165 31.7133 74.3611 31.7133C72.5055 31.7133 70.8354 31.0697 70.8354 27.9848V18.0456H68.9803V15.9508H73.6176V27.7989C73.6176 28.8356 73.8508 29.4111 74.847 29.4111C75.1736 29.4111 75.4037 29.3874 75.4037 29.3874L75.4041 31.6437ZM87.4429 26.1418H79.1841C79.3704 28.3744 80.9959 29.5485 82.8263 29.5485C84.7752 29.5485 86.2834 28.2846 86.2834 28.2846L87.3717 30.2634C87.3717 30.2634 85.5865 31.8981 82.6432 31.8981C78.7681 31.8981 76.3066 29.1124 76.3066 25.75C76.3066 22.1365 78.7921 19.6251 82.2932 19.6251C85.6791 19.6251 87.5135 22.0903 87.5135 25.1752C87.5135 25.497 87.4415 26.1418 87.4415 26.1418H87.4429ZM93.7988 31.8981C91.6436 31.8981 89.0437 30.977 89.0437 29.0649V27.7315H91.4352V28.4445C91.4352 29.2968 92.592 29.7104 93.8447 29.7104C95.0527 29.7104 95.934 29.2717 95.934 28.4445C95.934 27.4303 94.7726 27.1534 93.1937 26.5792C91.4565 25.9575 89.4616 25.1739 89.4616 22.9657C89.4616 20.5006 91.9212 19.6251 94.0551 19.6251C95.7697 19.6251 98.2976 20.2911 98.2976 22.042V23.5161H95.8629V22.8244C95.8629 22.2039 95.12 21.8128 94.0776 21.8128C93.1018 21.8128 92.27 22.1802 92.27 22.9413C92.27 23.9535 93.4747 24.3467 94.7946 24.7596C96.6057 25.3352 98.7389 26.0732 98.7389 28.35C98.7389 30.6989 96.5151 31.8981 93.7988 31.8981V31.8981ZM104.819 31.8981C102.661 31.8981 100.062 30.977 100.062 29.0649V27.7315H102.454V28.4445C102.454 29.2968 103.612 29.7104 104.863 29.7104C106.072 29.7104 106.951 29.2717 106.951 28.4445C106.951 27.4303 105.79 27.1534 104.215 26.5792C102.476 25.9575 100.479 25.1739 100.479 22.9657C100.479 20.5006 102.937 19.6251 105.072 19.6251C106.791 19.6251 109.318 20.2911 109.318 22.042V23.5161H106.881V22.8244C106.881 22.2039 106.14 21.8128 105.097 21.8128C104.122 21.8128 103.288 22.1802 103.288 22.9413C103.288 23.9535 104.492 24.3467 105.814 24.7596C107.625 25.3352 109.758 26.0732 109.758 28.35C109.758 30.6989 107.53 31.8981 104.819 31.8981V31.8981Z" fill="#C90117"/>
</svg>
