<svg width="152" height="25" viewBox="0 0 152 25" fill="none" xmlns="http://www.w3.org/2000/svg">
<path d="M80.2168 0.5H96.7897V4.55502H84.6935V10.3131H96.4531V14.2303H84.6935V20.0857H96.7897V24.1407H80.2168V0.5ZM142.559 24.5665C147.64 24.5665 150.502 22.1335 150.502 18.7922C150.502 16.4119 148.807 14.6358 145.259 13.8653L141.508 13.0989C139.331 12.6934 138.646 12.2879 138.646 11.4769C138.646 10.4267 139.696 9.78193 141.63 9.78193C143.727 9.78193 145.28 10.3456 145.685 12.2839H150.081C149.842 8.63436 147.218 6.22568 141.898 6.22568C137.299 6.22568 134.072 8.12343 134.072 11.8013C134.072 14.3438 135.848 15.9983 139.68 16.8052L143.873 17.7744C145.527 18.0988 145.969 18.5448 145.969 19.2301C145.969 20.3209 144.72 21.0062 142.701 21.0062C140.162 21.0062 138.71 20.4426 138.147 18.5043H133.727C134.372 22.1457 137.072 24.5665 142.559 24.5665V24.5665ZM132.45 24.1245H127.693C124.708 24.1245 123.054 22.2673 123.054 19.9235V10.6375H119.709V6.67984H123.07V1.71245H127.49V6.67984H132.45V10.6375H127.49V18.7922C127.49 19.7208 128.135 20.1668 129.145 20.1668H132.45V24.1245ZM113.391 6.68795V8.2613C111.835 6.9458 109.861 6.22708 107.823 6.23379C106.603 6.20813 105.391 6.42626 104.256 6.87538C103.121 7.32451 102.088 7.9956 101.216 8.84931C100.344 9.70303 99.6515 10.7222 99.1786 11.8471C98.7058 12.972 98.4622 14.1799 98.4622 15.4002C98.4622 16.6204 98.7058 17.8284 99.1786 18.9532C99.6515 20.0781 100.344 21.0973 101.216 21.951C102.088 22.8047 103.121 23.4758 104.256 23.9249C105.391 24.3741 106.603 24.5922 107.823 24.5665C109.861 24.5754 111.836 23.8564 113.391 22.539V24.1164H117.799V6.67984L113.391 6.68795ZM108.188 20.7386C107.131 20.7506 106.094 20.4481 105.209 19.8694C104.324 19.2906 103.631 18.4619 103.218 17.4884C102.806 16.5149 102.691 15.4407 102.891 14.4022C103.09 13.3638 103.593 12.408 104.337 11.6563C105.081 10.9046 106.031 10.391 107.067 10.1807C108.103 9.97047 109.179 10.073 110.157 10.4754C111.134 10.8778 111.971 11.5618 112.559 12.4405C113.147 13.3192 113.461 14.3529 113.46 15.4103C113.466 16.1073 113.334 16.7987 113.072 17.4444C112.809 18.0902 112.421 18.6774 111.93 19.1722C111.439 19.667 110.855 20.0595 110.211 20.3269C109.568 20.5944 108.877 20.7316 108.18 20.7305L108.188 20.7386Z" fill="#05C167"/>
<path d="M70.3796 9.95224C68.1615 9.95224 66.5882 11.6878 66.5882 14.3519V24.1245H63.2022V6.92315H66.5476V9.02364C66.9603 8.32746 67.5516 7.75431 68.2603 7.36358C68.969 6.97286 69.7694 6.77879 70.5783 6.80149H71.7948V9.95224H70.3796ZM60.8625 15.5238C60.8625 10.3942 57.213 6.55819 52.274 6.55819C51.107 6.56612 49.9531 6.8047 48.8787 7.26023C47.8043 7.71575 46.8306 8.37923 46.0135 9.21247C45.1965 10.0457 44.5523 11.0323 44.1179 12.1155C43.6836 13.1986 43.4677 14.3569 43.4827 15.5238C43.4827 20.6494 47.4363 24.526 52.5943 24.526C54.0351 24.5532 55.4614 24.2336 56.7528 23.5943C58.0443 22.9549 59.1631 22.0144 60.015 20.8521L57.5577 19.0517C56.9939 19.8385 56.2479 20.4771 55.3836 20.9128C54.5192 21.3485 53.5622 21.5684 52.5943 21.5536C51.2159 21.5471 49.8853 21.047 48.8439 20.1439C47.8024 19.2408 47.1189 17.9945 46.9173 16.6309H60.8706L60.8625 15.5238ZM46.9903 13.9464C47.5945 11.3228 49.6909 9.54674 52.2334 9.54674C54.7759 9.54674 56.8683 11.3228 57.436 13.9464H46.9903ZM32.7572 6.55819C31.6256 6.55914 30.5055 6.78432 29.4615 7.22072C28.4175 7.65712 27.4703 8.29608 26.6747 9.10069V0.5H23.2887V24.1245H26.6341V21.9429C28.2548 23.5824 30.46 24.5115 32.7653 24.526C33.9611 24.5514 35.15 24.3378 36.2622 23.8977C37.3744 23.4577 38.3876 22.8 39.2423 21.9632C40.097 21.1265 40.7761 20.1275 41.2397 19.0249C41.7033 17.9223 41.9421 16.7382 41.9421 15.5421C41.9421 14.346 41.7033 13.1619 41.2397 12.0593C40.7761 10.9567 40.097 9.9577 39.2423 9.12095C38.3876 8.2842 37.3744 7.62651 36.2622 7.18645C35.15 6.74638 33.9611 6.53279 32.7653 6.55819H32.7572ZM32.5139 21.5009C31.3337 21.5065 30.1784 21.1615 29.1947 20.5094C28.2109 19.8574 27.443 18.9279 26.9884 17.8387C26.5338 16.7496 26.4129 15.5499 26.6412 14.392C26.8695 13.2341 27.4366 12.1701 28.2706 11.3349C29.1045 10.4998 30.1678 9.93129 31.3254 9.70143C32.483 9.47157 33.6828 9.59076 34.7726 10.0439C35.8623 10.497 36.7929 11.2636 37.4463 12.2465C38.0997 13.2294 38.4463 14.3842 38.4423 15.5644C38.4434 16.3428 38.2907 17.1138 37.9931 17.8331C37.6954 18.5524 37.2586 19.2059 36.7078 19.7559C36.157 20.306 35.503 20.7419 34.7833 21.0386C34.0635 21.3352 33.2923 21.4868 32.5139 21.4847V21.5009ZM10.8196 21.3387C14.0879 21.3387 16.6263 18.8327 16.6263 15.0778V0.5H20.1339V24.1245H16.6669V21.8902C15.8569 22.7274 14.8854 23.3915 13.8114 23.8425C12.7373 24.2934 11.583 24.5218 10.4181 24.5138C5.37772 24.5138 1.49707 20.84 1.49707 15.2684V0.5H5.06954V15.0981C5.06954 18.8733 7.50255 21.3387 10.8196 21.3387V21.3387Z" fill="black"/>
</svg>
